<svg xmlns="http://www.w3.org/2000/svg" xmlns:xlink="http://www.w3.org/1999/xlink" width="500" zoomAndPan="magnify" viewBox="0 0 375 374.999991" height="500" preserveAspectRatio="xMidYMid meet" version="1.0"><defs><g/></defs><path fill="#ffffff" d="M 183.535156 120.503906 C 183.144531 119.65625 182.65625 118.871094 182.070312 118.148438 C 181.480469 117.425781 180.808594 116.789062 180.058594 116.234375 C 179.308594 115.683594 178.5 115.234375 177.632812 114.886719 C 176.769531 114.539062 175.871094 114.308594 174.949219 114.191406 C 169.722656 113.578125 164.917969 116.753906 159.957031 118.5 C 148.070312 122.679688 133.660156 117.804688 126.757812 107.28125 C 123.136719 101.753906 121.144531 94.675781 115.472656 91.300781 C 110.496094 88.339844 104.214844 89.214844 98.484375 90.128906 C 91.328125 91.269531 84.097656 92.324219 76.859375 91.90625 C 69.625 91.484375 62.308594 89.488281 56.5625 85.074219 C 53.464844 82.691406 50.726562 79.574219 46.972656 78.496094 C 42.804688 77.296875 38.25 78.964844 34.867188 81.675781 C 26.023438 88.777344 24.269531 102.554688 29.441406 112.65625 C 34.609375 122.757812 45.429688 129.183594 56.621094 131.066406 C 61.90625 131.957031 67.304688 131.9375 72.613281 131.292969 C 80.382812 130.347656 87.847656 128.210938 95.65625 127.367188 C 105.605469 126.292969 115.710938 125.597656 125.632812 127.414062 C 140.59375 130.152344 154.800781 138.410156 169.949219 137.0625 C 174.703125 136.640625 179.722656 135.011719 182.484375 131.113281 C 183.015625 130.347656 183.441406 129.527344 183.761719 128.648438 C 184.085938 127.773438 184.292969 126.875 184.382812 125.945312 C 184.476562 125.015625 184.449219 124.09375 184.304688 123.171875 C 184.160156 122.25 183.90625 121.363281 183.535156 120.503906 Z M 45.425781 100.640625 C 44.984375 100.613281 44.019531 100.742188 43.679688 100.980469 C 42.984375 101.457031 42.636719 102.085938 42.664062 103.113281 C 42.683594 103.957031 42.921875 105.554688 42.296875 105.554688 C 41.507812 105.359375 41.652344 104.203125 41.492188 103.402344 C 41.328125 102.605469 41.101562 101.953125 40.441406 101.46875 C 39.289062 100.640625 36.828125 102.054688 36.6875 100.640625 C 36.589844 99.675781 38.050781 100.085938 38.101562 100.085938 C 39.117188 100.058594 39.335938 100.136719 40.109375 99.769531 C 41.035156 99.332031 41.105469 98.617188 41.074219 97.605469 C 41.058594 97.246094 41.074219 96.554688 41.019531 96.199219 C 41.003906 96.003906 41.054688 95.828125 41.167969 95.671875 C 41.285156 95.515625 41.4375 95.414062 41.625 95.371094 C 42.082031 95.308594 42.21875 95.921875 42.246094 96.375 C 42.277344 96.949219 42.300781 97.480469 42.359375 98.0625 C 42.417969 98.644531 42.683594 99.238281 43.210938 99.445312 C 43.792969 99.6875 44.59375 99.445312 45.148438 99.515625 C 45.769531 99.605469 46.511719 99.46875 46.601562 100.089844 C 46.675781 100.640625 45.960938 100.667969 45.425781 100.640625 Z M 174.222656 129.878906 C 173.988281 129.878906 173.757812 129.832031 173.539062 129.742188 C 173.324219 129.652344 173.128906 129.523438 172.960938 129.355469 C 172.792969 129.191406 172.664062 128.996094 172.574219 128.777344 C 172.484375 128.5625 172.4375 128.332031 172.4375 128.097656 C 172.4375 127.859375 172.484375 127.632812 172.574219 127.414062 C 172.664062 127.195312 172.792969 127.003906 172.960938 126.835938 C 173.125 126.667969 173.320312 126.539062 173.539062 126.449219 C 173.757812 126.359375 173.984375 126.3125 174.21875 126.3125 C 174.457031 126.3125 174.683594 126.359375 174.902344 126.449219 C 175.121094 126.539062 175.3125 126.667969 175.480469 126.835938 C 175.648438 127 175.777344 127.195312 175.867188 127.414062 C 175.957031 127.632812 176.003906 127.859375 176.003906 128.09375 C 176.003906 128.332031 175.957031 128.558594 175.867188 128.777344 C 175.777344 128.996094 175.648438 129.1875 175.480469 129.355469 C 175.316406 129.523438 175.121094 129.652344 174.90625 129.742188 C 174.6875 129.832031 174.460938 129.878906 174.222656 129.878906 Z M 174.222656 129.878906 " fill-opacity="0.5" fill-rule="nonzero"/><path fill="#ffffff" d="M 183.273438 161.269531 C 174.652344 144.6875 154.789062 134.390625 136.457031 138.027344 C 127.011719 139.90625 118.460938 145.042969 109.019531 146.945312 C 93.6875 150.035156 78.148438 144.335938 63.238281 139.625 C 48.332031 134.917969 31.625 131.238281 17.511719 137.953125 C 5.222656 143.796875 -2.691406 157.050781 -3.746094 170.621094 C -4.800781 184.1875 0.421875 197.789062 8.90625 208.425781 C 14.570312 215.53125 21.621094 221.417969 29.28125 226.261719 C 35.472656 230.175781 41.027344 233.53125 48.28125 234.679688 C 57.527344 236.136719 66.824219 237.175781 76.175781 237.785156 C 94.710938 239.003906 113.199219 238.542969 131.648438 236.402344 C 140.050781 235.429688 148.507812 234.078125 156.3125 230.816406 C 160.585938 229.019531 164.558594 226.707031 168.230469 223.875 C 171.902344 221.046875 175.148438 217.792969 177.972656 214.117188 C 189.328125 199.277344 191.894531 177.847656 183.273438 161.269531 Z M 17.761719 200.554688 C 17.320312 200.527344 16.355469 200.660156 16.015625 200.894531 C 15.324219 201.375 14.972656 202.015625 15 203.03125 C 15.019531 203.859375 15.261719 205.46875 14.636719 205.46875 C 13.84375 205.273438 13.988281 204.117188 13.828125 203.316406 C 13.664062 202.519531 13.441406 201.867188 12.777344 201.382812 C 11.625 200.554688 9.167969 201.972656 9.023438 200.554688 C 8.925781 199.589844 10.386719 200 10.4375 200 C 11.457031 199.972656 11.671875 200.050781 12.445312 199.683594 C 13.375 199.246094 13.445312 198.53125 13.410156 197.519531 C 13.410156 197.160156 13.410156 196.472656 13.355469 196.113281 C 13.339844 195.921875 13.390625 195.746094 13.503906 195.585938 C 13.621094 195.429688 13.773438 195.328125 13.960938 195.285156 C 14.417969 195.226562 14.558594 195.839844 14.585938 196.292969 C 14.613281 196.863281 14.636719 197.398438 14.695312 197.976562 C 14.753906 198.558594 15.019531 199.15625 15.550781 199.375 C 16.132812 199.617188 16.933594 199.375 17.484375 199.445312 C 18.105469 199.535156 18.847656 199.398438 18.9375 200.019531 C 19.003906 200.554688 18.289062 200.585938 17.761719 200.554688 Z M 23.730469 207.824219 C 23.492188 207.824219 23.265625 207.777344 23.046875 207.6875 C 22.828125 207.597656 22.636719 207.46875 22.46875 207.300781 C 22.300781 207.132812 22.171875 206.941406 22.082031 206.722656 C 21.992188 206.503906 21.945312 206.273438 21.945312 206.039062 C 21.945312 205.800781 21.992188 205.574219 22.082031 205.355469 C 22.175781 205.136719 22.304688 204.945312 22.46875 204.777344 C 22.636719 204.609375 22.832031 204.480469 23.050781 204.390625 C 23.269531 204.300781 23.496094 204.257812 23.730469 204.257812 C 23.96875 204.257812 24.195312 204.300781 24.414062 204.394531 C 24.632812 204.484375 24.824219 204.613281 24.992188 204.78125 C 25.160156 204.949219 25.289062 205.140625 25.378906 205.359375 C 25.46875 205.578125 25.511719 205.804688 25.511719 206.042969 C 25.511719 206.277344 25.46875 206.507812 25.375 206.722656 C 25.285156 206.941406 25.15625 207.136719 24.988281 207.300781 C 24.824219 207.46875 24.628906 207.597656 24.410156 207.6875 C 24.195312 207.777344 23.964844 207.824219 23.730469 207.824219 Z M 40.15625 181.777344 C 38.742188 184.539062 36.085938 186.445312 33.285156 187.753906 C 28.324219 190.066406 20.335938 191.625 15.132812 189.136719 C 10.011719 186.679688 6.605469 179.832031 6.171875 174.433594 C 5.664062 168.015625 8.820312 161.371094 14.261719 157.929688 C 19.703125 154.492188 27.214844 154.535156 32.46875 158.253906 C 36.472656 161.085938 38.941406 165.652344 40.34375 170.347656 C 41.460938 174.09375 41.9375 178.304688 40.15625 181.777344 Z M 50.402344 155.019531 C 49.957031 154.992188 48.992188 155.125 48.65625 155.359375 C 47.960938 155.839844 47.609375 156.480469 47.636719 157.496094 C 47.660156 158.328125 47.898438 159.933594 47.273438 159.933594 C 46.480469 159.742188 46.628906 158.582031 46.460938 157.785156 C 46.296875 156.984375 46.074219 156.332031 45.417969 155.851562 C 44.261719 155.019531 41.804688 156.4375 41.660156 155.019531 C 41.566406 154.054688 43.023438 154.46875 43.074219 154.46875 C 44.089844 154.441406 44.3125 154.519531 45.082031 154.152344 C 46.007812 153.714844 46.082031 153 46.046875 151.992188 C 46.035156 151.628906 46.035156 150.941406 45.996094 150.582031 C 45.976562 150.386719 46.027344 150.210938 46.140625 150.054688 C 46.253906 149.894531 46.40625 149.796875 46.597656 149.753906 C 47.058594 149.691406 47.195312 150.304688 47.21875 150.757812 C 47.25 151.332031 47.273438 151.863281 47.332031 152.445312 C 47.386719 153.027344 47.65625 153.621094 48.1875 153.828125 C 48.769531 154.066406 49.570312 153.828125 50.121094 153.898438 C 50.742188 153.988281 51.488281 153.847656 51.574219 154.472656 C 51.632812 155.019531 50.921875 155.054688 50.402344 155.019531 Z M 59.75 148.972656 C 59.511719 148.972656 59.285156 148.929688 59.066406 148.839844 C 58.847656 148.746094 58.65625 148.617188 58.488281 148.453125 C 58.320312 148.285156 58.191406 148.089844 58.101562 147.875 C 58.011719 147.65625 57.964844 147.425781 57.964844 147.191406 C 57.964844 146.953125 58.011719 146.726562 58.101562 146.507812 C 58.191406 146.289062 58.320312 146.097656 58.488281 145.929688 C 58.65625 145.761719 58.847656 145.632812 59.066406 145.542969 C 59.285156 145.453125 59.511719 145.40625 59.75 145.40625 C 59.984375 145.40625 60.210938 145.453125 60.429688 145.542969 C 60.648438 145.632812 60.84375 145.761719 61.007812 145.929688 C 61.175781 146.097656 61.304688 146.289062 61.394531 146.507812 C 61.484375 146.726562 61.53125 146.953125 61.53125 147.191406 C 61.53125 147.425781 61.488281 147.65625 61.398438 147.875 C 61.304688 148.09375 61.175781 148.285156 61.011719 148.453125 C 60.84375 148.621094 60.648438 148.75 60.429688 148.839844 C 60.210938 148.929688 59.984375 148.972656 59.75 148.972656 Z M 161.902344 163.964844 C 162.109375 163.964844 162.289062 164.039062 162.433594 164.183594 C 162.582031 164.332031 162.652344 164.511719 162.652344 164.71875 C 162.652344 164.925781 162.578125 165.101562 162.433594 165.25 C 162.285156 165.394531 162.109375 165.46875 161.898438 165.46875 C 161.691406 165.46875 161.515625 165.394531 161.367188 165.246094 C 161.222656 165.097656 161.148438 164.921875 161.148438 164.714844 C 161.144531 164.503906 161.21875 164.324219 161.367188 164.175781 C 161.511719 164.023438 161.691406 163.949219 161.902344 163.949219 Z M 166.878906 208.886719 C 166.101562 210.820312 164.269531 212.21875 162.265625 212.804688 C 160.261719 213.390625 158.101562 213.25 156.066406 212.777344 C 148.777344 211.085938 142.71875 204.933594 141.140625 197.621094 C 140.332031 193.882812 140.671875 189.800781 142.640625 186.519531 C 144.609375 183.242188 148.34375 180.9375 152.160156 181.21875 C 155.972656 181.496094 159.519531 184.699219 159.683594 188.519531 C 159.808594 191.367188 158.511719 194.296875 160.515625 196.8125 C 162.058594 198.761719 164.40625 199.804688 165.835938 202.003906 C 167.128906 204.015625 167.761719 206.632812 166.867188 208.871094 Z M 176.777344 185.976562 C 176.332031 185.953125 175.367188 186.082031 175.03125 186.316406 C 174.335938 186.796875 173.988281 187.4375 174.011719 188.457031 C 174.035156 189.296875 174.273438 190.894531 173.648438 190.894531 C 172.855469 190.699219 173.003906 189.539062 172.839844 188.742188 C 172.679688 187.941406 172.453125 187.289062 171.792969 186.804688 C 170.640625 185.960938 168.179688 187.390625 168.039062 185.976562 C 167.941406 185.011719 169.402344 185.421875 169.449219 185.421875 C 170.46875 185.394531 170.6875 185.472656 171.460938 185.109375 C 172.386719 184.667969 172.457031 183.957031 172.425781 182.945312 C 172.410156 182.585938 172.425781 181.898438 172.371094 181.539062 C 172.355469 181.34375 172.402344 181.167969 172.519531 181.011719 C 172.632812 180.851562 172.785156 180.753906 172.972656 180.707031 C 173.433594 180.652344 173.570312 181.261719 173.597656 181.714844 C 173.625 182.285156 173.652344 182.820312 173.707031 183.402344 C 173.761719 183.980469 174.03125 184.578125 174.5625 184.800781 C 175.144531 185.039062 175.945312 184.800781 176.5 184.867188 C 177.121094 184.957031 177.863281 184.820312 177.953125 185.441406 C 178.007812 185.960938 177.292969 186.007812 176.769531 185.960938 Z M 176.777344 185.976562 " fill-opacity="0.5" fill-rule="nonzero"/><path fill="#4e356f" d="M 95.332031 143.949219 C 88.957031 143.058594 85.09375 137.023438 86.582031 130.304688 C 86.917969 128.785156 87.507812 127.324219 87.6875 125.761719 C 88.160156 121.582031 86.523438 119.40625 82.398438 118.726562 C 78.492188 118.085938 74.550781 117.847656 70.601562 117.636719 C 67.578125 117.515625 64.695312 116.8125 61.953125 115.53125 C 55.890625 112.632812 55.015625 106.261719 60.074219 101.777344 C 61.34375 100.660156 62.75 99.757812 64.292969 99.074219 C 65.839844 98.386719 67.449219 97.949219 69.128906 97.757812 C 71.046875 97.511719 72.933594 97.164062 74.730469 96.40625 C 79.523438 94.382812 81.425781 90.695312 80.230469 85.644531 C 79.039062 80.59375 77.773438 75.550781 77.800781 70.304688 C 77.800781 68.457031 77.988281 66.632812 78.761719 64.921875 C 79.390625 63.539062 80.328125 62.347656 81.789062 61.878906 C 88.925781 59.554688 94.828125 60.425781 99.796875 66.179688 C 100.367188 66.902344 100.855469 67.675781 101.257812 68.503906 C 103.273438 72.214844 107.441406 72.417969 109.800781 68.9375 C 111.019531 67.125 112.515625 65.578125 114.28125 64.296875 C 120.289062 59.914062 127.417969 61.6875 130.652344 68.414062 C 132.625 72.507812 132.519531 76.792969 131.40625 81.074219 C 130.429688 84.828125 131.445312 86.601562 135.277344 87.105469 C 138.054688 87.472656 140.855469 87.65625 143.652344 87.851562 C 145.941406 87.988281 148.066406 88.652344 150.027344 89.84375 C 152.4375 91.308594 153.003906 93.234375 151.964844 95.859375 C 151.386719 97.308594 150.785156 98.753906 150.339844 100.242188 C 149.261719 103.820312 149.988281 105.953125 152.996094 108.171875 C 154.882812 109.550781 156.867188 110.84375 158.71875 112.257812 C 163.5 115.890625 166.371094 120.550781 166.675781 126.710938 C 166.894531 131.199219 166.648438 135.609375 165.660156 139.992188 C 164.0625 147.070312 159.636719 151.703125 153.300781 154.933594 C 144.007812 159.683594 134.8125 159.039062 125.539062 155.027344 C 122.796875 153.839844 120.324219 152.320312 118.457031 149.941406 C 117.953125 149.160156 118.679688 148.558594 118.765625 147.875 C 118.835938 147.308594 119.480469 146.664062 118.585938 146.195312 C 118.371094 146.035156 118.222656 145.824219 118.140625 145.566406 C 116.25 144.296875 116.519531 142.351562 116.578125 140.492188 C 116.597656 139.9375 116.835938 139.417969 116.929688 138.875 C 117.097656 137.863281 116.730469 137.214844 115.730469 136.859375 C 113.273438 135.972656 112.941406 135.332031 113.425781 132.714844 C 113.59375 131.796875 113.847656 130.855469 112.8125 130.257812 C 111.835938 129.707031 110.949219 130.015625 110.121094 130.625 C 109.695312 130.976562 109.246094 131.296875 108.773438 131.585938 C 107.261719 132.398438 105.96875 132.195312 104.785156 130.945312 C 104.566406 130.710938 104.371094 130.449219 104.152344 130.210938 C 102.988281 128.953125 102.238281 128.695312 100.746094 129.453125 C 99.539062 130.0625 98.578125 129.867188 97.777344 128.960938 C 96.394531 127.386719 94.558594 127.933594 93.1875 129.238281 C 90.917969 131.398438 90.871094 135.53125 94.332031 136.847656 C 95.558594 137.3125 96.042969 138.140625 95.773438 139.441406 C 95.53125 140.597656 95.988281 141.71875 96.050781 142.863281 C 96.074219 143.382812 96.28125 144.039062 95.332031 143.949219 Z M 95.332031 143.949219 " fill-opacity="1" fill-rule="nonzero"/><path fill="#3ec277" d="M 36.445312 231.460938 C 35.195312 230.183594 34.789062 228.558594 34.511719 226.867188 C 34.03125 223.894531 34.066406 220.929688 34.628906 217.96875 C 35.277344 214.546875 37.328125 212.105469 40.34375 210.457031 C 42.402344 209.28125 44.605469 208.558594 46.960938 208.292969 C 47.84375 209.539062 47.863281 210.878906 47.398438 212.273438 C 46.414062 212.667969 45.347656 212.707031 44.355469 213.050781 C 43.695312 213.25 43.058594 213.507812 42.445312 213.828125 C 40.996094 214.65625 40.910156 215.742188 42.226562 216.734375 C 43 217.324219 43.84375 217.785156 44.761719 218.113281 C 49.714844 219.855469 54.777344 221.203125 59.941406 222.152344 C 68.769531 223.777344 77.660156 224.929688 86.609375 225.609375 C 91.632812 226.007812 96.710938 225.796875 101.769531 225.566406 C 106.832031 225.335938 111.9375 224.738281 117.019531 224.339844 C 122.800781 223.878906 128.574219 223.320312 134.039062 221.148438 C 134.6875 220.902344 135.304688 220.597656 135.886719 220.222656 C 138.34375 218.597656 138.273438 216.046875 135.738281 214.496094 C 134.839844 213.941406 133.773438 213.6875 133.015625 212.898438 C 132.757812 212.414062 132.855469 211.914062 132.9375 211.421875 C 133.449219 208.453125 133.894531 205.472656 134.402344 202.5 C 134.5 201.914062 134.558594 201.292969 135.332031 201.171875 C 136.238281 202.21875 136.160156 203.582031 136.398438 204.800781 C 137.128906 208.425781 138.910156 211.433594 141.375 214.101562 C 143.53125 216.441406 145.300781 219.042969 146.351562 222.089844 C 146.703125 223.132812 147.066406 224.171875 146.902344 225.300781 C 145.464844 226.128906 144.300781 227.339844 142.925781 228.261719 C 134.910156 233.632812 126.132812 237.335938 116.882812 239.976562 C 111.703125 241.453125 106.464844 242.6875 101.078125 243.015625 C 94.65625 243.449219 88.234375 243.496094 81.808594 243.160156 C 77.820312 242.921875 73.824219 242.910156 69.871094 242.25 C 59.859375 240.574219 50.132812 237.910156 40.828125 233.796875 C 39.304688 233.121094 37.933594 232.1875 36.445312 231.460938 Z M 36.445312 231.460938 " fill-opacity="1" fill-rule="nonzero"/><path fill="#ae57db" d="M 79.011719 151.054688 C 81.300781 150.472656 83.617188 150.335938 85.957031 150.652344 C 86.53125 150.738281 87.097656 150.699219 87.652344 150.535156 C 88.207031 150.371094 88.703125 150.097656 89.140625 149.71875 C 90.542969 148.554688 92.179688 148.539062 93.765625 149.441406 C 94.28125 149.734375 94.746094 150.113281 95.238281 150.453125 C 95.777344 150.640625 96.066406 151.136719 96.488281 151.464844 C 97.140625 152.007812 97.871094 152.398438 98.679688 152.644531 C 99.488281 152.890625 100.3125 152.972656 101.15625 152.882812 C 104.59375 153.082031 105.945312 155.347656 106.570312 158.339844 C 106.019531 161.769531 105.011719 165.113281 104.429688 168.542969 C 103.742188 172.601562 103.144531 176.664062 102.808594 180.773438 C 102.558594 183.335938 102.644531 185.882812 103.058594 188.417969 C 103.648438 191.765625 105.132812 194.5625 108.054688 196.453125 C 108.296875 196.601562 108.480469 196.796875 108.609375 197.046875 C 108.644531 197.796875 108.011719 197.910156 107.535156 198.097656 C 102.800781 200 97.992188 201.664062 92.886719 202.296875 C 92.570312 202.347656 92.316406 202.246094 92.128906 201.988281 C 91.820312 201.121094 91.769531 200.203125 91.605469 199.308594 C 91.289062 197.433594 90.605469 195.707031 89.550781 194.125 C 88.785156 193.019531 88.527344 192.957031 87.566406 193.898438 C 86.488281 194.949219 85.4375 196.03125 84.363281 197.089844 C 83.976562 197.472656 83.640625 197.917969 83.082031 198.089844 C 81.347656 197.847656 79.832031 196.949219 78.1875 196.433594 C 77.453125 196.199219 76.71875 195.949219 75.976562 195.726562 C 74.886719 195.316406 73.773438 194.972656 72.640625 194.695312 C 72.191406 194.535156 71.730469 194.410156 71.261719 194.324219 C 70.855469 194.214844 70.445312 194.140625 70.03125 194.089844 C 68.046875 193.582031 65.96875 193.503906 64.058594 192.710938 C 61.363281 190.363281 60.1875 187.207031 59.402344 183.863281 C 59.316406 183.507812 59.285156 183.140625 59.175781 182.789062 C 59.09375 182.445312 59.046875 182.097656 59.03125 181.746094 C 58.359375 177 58.835938 172.523438 61.707031 168.449219 C 64.535156 164.453125 67.453125 160.582031 70.910156 157.109375 C 72.269531 155.742188 73.433594 154.199219 74.992188 153.015625 C 76.21875 152.089844 77.457031 151.269531 79.011719 151.054688 Z M 79.011719 151.054688 " fill-opacity="1" fill-rule="nonzero"/><path fill="#2fa760" d="M 36.445312 231.460938 C 36.945312 230.976562 37.320312 231.492188 37.648438 231.683594 C 42.292969 234.363281 47.324219 236.078125 52.394531 237.707031 C 58.941406 239.808594 65.625 241.292969 72.445312 242.15625 C 75.082031 242.496094 77.730469 242.570312 80.378906 242.726562 C 84.277344 242.960938 88.175781 242.921875 92.074219 242.972656 C 104.824219 243.144531 116.949219 240.375 128.652344 235.429688 C 133.695312 233.292969 138.554688 230.832031 143.042969 227.6875 C 143.972656 227.019531 144.863281 226.304688 145.71875 225.542969 C 146.097656 225.214844 146.414062 224.9375 146.898438 225.308594 C 147.582031 227.855469 146.898438 230.226562 145.652344 232.375 C 143.71875 235.695312 140.660156 237.90625 137.503906 239.957031 C 136.011719 241.09375 134.363281 241.921875 132.5625 242.445312 C 126.632812 244.679688 120.59375 246.5 114.304688 247.496094 C 106.105469 248.753906 97.863281 249.128906 89.582031 248.621094 C 78.546875 248.003906 67.699219 246.214844 56.984375 243.546875 C 55.472656 243.167969 53.996094 242.652344 52.5 242.214844 C 52.074219 242.09375 51.65625 241.800781 51.179688 242.066406 C 49.476562 241.414062 47.695312 240.960938 46.132812 239.96875 C 43.980469 238.535156 41.585938 237.453125 39.675781 235.65625 C 38.375 234.417969 37.132812 233.160156 36.445312 231.460938 Z M 36.445312 231.460938 " fill-opacity="1" fill-rule="nonzero"/><path fill="#c08080" d="M 101.207031 153.230469 C 98.660156 153.507812 96.648438 152.636719 95.238281 150.464844 C 95.851562 150 96.429688 149.496094 96.976562 148.953125 C 97.789062 148.050781 98.082031 147.046875 97.058594 146.0625 C 96.402344 145.425781 95.816406 143.460938 95.75 143 C 95.542969 141.617188 95.167969 140.222656 95.53125 138.78125 C 95.710938 138.0625 95.292969 137.546875 94.582031 137.324219 C 92.570312 136.699219 91.378906 135.355469 91.222656 133.257812 C 91.0625 131.097656 92.082031 129.449219 93.789062 128.21875 C 95.230469 127.179688 96.515625 127.285156 97.839844 128.542969 C 98.734375 129.390625 99.515625 129.855469 100.789062 129.027344 C 101.894531 128.304688 103.167969 128.398438 104.105469 129.613281 C 104.300781 129.867188 104.546875 130.078125 104.757812 130.324219 C 106.324219 132.132812 107.644531 132.257812 109.457031 130.695312 C 110.316406 129.957031 111.191406 129.332031 112.421875 129.632812 C 113.648438 129.933594 114.179688 130.65625 113.96875 131.941406 C 113.886719 132.433594 113.761719 132.925781 113.660156 133.417969 C 113.300781 135.125 113.855469 136.003906 115.570312 136.4375 C 117.285156 136.875 117.78125 137.546875 117.230469 139.203125 C 116.605469 141.011719 117.121094 142.71875 117.246094 144.472656 C 117.277344 144.953125 117.476562 144.660156 117.648438 144.605469 C 118.546875 144.328125 118.527344 144.917969 118.511719 145.503906 C 118.277344 146.695312 117.621094 147.679688 117.039062 148.578125 C 117.746094 147.921875 117.808594 146.671875 118.820312 146.089844 C 119.335938 145.800781 119.75 145.703125 119.515625 146.535156 C 119.195312 147.671875 118.839844 148.796875 118.496094 149.925781 C 117.246094 151.214844 116.660156 152.820312 116.320312 154.539062 C 116.34375 154.75 116.34375 154.957031 116.320312 155.167969 C 115.945312 155.957031 116.183594 157.050781 115.160156 157.523438 C 112.949219 156.007812 110.613281 155.34375 107.976562 156.226562 C 107.785156 156.25 107.613281 156.203125 107.464844 156.078125 C 107.085938 155.125 107.523438 154.253906 107.742188 153.359375 C 107.960938 152.46875 108.460938 151.882812 109.21875 151.355469 C 110.40625 150.484375 111.402344 149.433594 112.210938 148.207031 C 112.65625 147.5625 113.269531 147.078125 113.796875 146.515625 C 113.867188 146.457031 113.921875 146.382812 113.996094 146.332031 C 114.433594 145.996094 114.757812 145.128906 115.351562 145.484375 C 115.996094 145.867188 115.449219 146.605469 115.316406 147.183594 C 115.226562 147.390625 115.171875 147.609375 115.039062 147.855469 C 115.253906 147.582031 115.339844 147.28125 115.539062 147.058594 C 115.738281 146.835938 115.640625 146.535156 115.613281 146.269531 C 115.585938 146 115.746094 145.585938 115.359375 145.421875 C 114.96875 145.257812 114.765625 145.542969 114.527344 145.761719 C 114.292969 145.980469 114.078125 146.210938 113.847656 146.429688 C 112.394531 147.695312 111.441406 149.40625 110.011719 150.691406 C 109.398438 151.242188 108.800781 151.796875 107.929688 151.910156 C 106.429688 151.984375 104.9375 151.984375 103.488281 151.507812 C 102.738281 151.257812 102.148438 151.417969 101.828125 152.195312 C 101.761719 152.625 101.554688 152.96875 101.207031 153.230469 Z M 101.207031 153.230469 " fill-opacity="1" fill-rule="nonzero"/><path fill="#3ec277" d="M 167.3125 156.636719 C 167.378906 151.730469 170.5 147.636719 175.214844 146.371094 C 179.558594 145.210938 183.910156 144.070312 188.253906 142.929688 C 191.183594 142.164062 192.550781 142.929688 193.378906 145.851562 C 193.710938 146.902344 193.972656 147.96875 194.164062 149.054688 C 194.511719 151.402344 193.695312 152.589844 191.402344 153.199219 C 187.457031 154.257812 183.515625 155.328125 179.550781 156.3125 C 178.40625 156.589844 178.132812 156.984375 178.484375 158.175781 C 179.589844 161.960938 180.570312 165.785156 181.59375 169.597656 C 182.328125 172.363281 181.441406 173.914062 178.707031 174.648438 C 177.644531 174.925781 176.59375 175.265625 175.519531 175.507812 C 173.597656 175.945312 171.996094 175.0625 171.460938 173.152344 C 170.109375 168.292969 168.824219 163.414062 167.539062 158.535156 C 167.417969 157.90625 167.339844 157.273438 167.3125 156.636719 Z M 167.3125 156.636719 " fill-opacity="1" fill-rule="nonzero"/><path fill="#3ec277" d="M 116.085938 154.917969 L 116.292969 154.550781 C 119.148438 155.1875 122.011719 155.773438 124.78125 156.746094 C 129.894531 158.542969 132.84375 162.109375 133.628906 167.445312 C 134.007812 169.976562 134.253906 172.527344 134.558594 175.070312 C 134.738281 177.03125 134.558594 178.996094 134.648438 180.960938 C 134.679688 181.789062 134.257812 182.007812 133.5625 181.992188 C 133.011719 181.96875 132.46875 181.875 131.941406 181.714844 C 129.296875 180.960938 126.550781 180.71875 123.875 180.101562 C 123.535156 180.070312 123.273438 179.90625 123.09375 179.613281 C 122.136719 172.363281 120.761719 165.207031 118.050781 158.367188 C 117.5625 157.121094 116.632812 156.136719 116.085938 154.917969 Z M 116.085938 154.917969 " fill-opacity="1" fill-rule="nonzero"/><path fill="#f9f9fb" d="M 52.488281 196.625 C 52.636719 197.859375 52.242188 199.078125 52.371094 200.308594 C 52.136719 203.949219 52.824219 207.320312 55.15625 210.261719 C 55.75 210.960938 56.421875 211.578125 57.167969 212.113281 C 57.515625 212.386719 58.125 212.578125 57.996094 213.089844 C 57.867188 213.601562 57.246094 213.492188 56.804688 213.566406 C 54.246094 213.84375 51.683594 214.089844 49.109375 214.140625 C 47.652344 214.171875 47.144531 213.621094 47.324219 212.339844 C 47.484375 210.957031 47.15625 209.640625 46.964844 208.304688 C 47.183594 206.367188 46.59375 204.492188 46.378906 202.585938 C 45.988281 199.144531 45.515625 195.710938 45.082031 192.273438 C 44.914062 190.960938 44.789062 189.640625 44.570312 188.339844 C 44.25 186.433594 44.601562 185.71875 46.394531 185.0625 C 48.722656 184.214844 51.046875 183.375 53.449219 182.757812 C 55.300781 181.738281 57.207031 181.03125 59.359375 181.679688 C 59.390625 182.039062 59.425781 182.398438 59.457031 182.757812 C 59.78125 185.851562 60.167969 188.9375 60.703125 192 C 60.238281 192.738281 59.417969 192.703125 58.734375 192.746094 C 56.300781 192.898438 54.246094 193.671875 52.914062 195.851562 C 52.796875 196.011719 52.644531 196.101562 52.449219 196.128906 " fill-opacity="1" fill-rule="nonzero"/><path fill="#3ec277" d="M 59.355469 181.671875 C 57.324219 181.710938 55.398438 182.308594 53.445312 182.746094 C 53.851562 175.605469 55.167969 168.648438 57.867188 162.015625 C 58.394531 160.738281 59.035156 159.523438 59.796875 158.371094 C 62.488281 154.269531 66.15625 151.683594 71.1875 151.410156 C 73.796875 151.269531 76.398438 150.925781 79.019531 151.058594 C 74.777344 152.714844 72.148438 156.308594 69.183594 159.453125 C 66.820312 161.957031 64.875 164.8125 62.765625 167.527344 C 59.46875 171.769531 58.664062 176.519531 59.355469 181.671875 Z M 59.355469 181.671875 " fill-opacity="1" fill-rule="nonzero"/><path fill="#f9f9fb" d="M 123.75 179.757812 C 126.019531 180.164062 128.292969 180.5625 130.5625 180.980469 C 131.28125 181.109375 131.988281 181.285156 132.699219 181.445312 C 134.941406 181.957031 134.445312 181.847656 135.015625 181.972656 C 135.292969 182.03125 135.585938 182.15625 136.105469 182.304688 C 138.015625 182.855469 138.292969 183.441406 137.777344 185.375 C 136.878906 188.765625 136.566406 192.265625 135.90625 195.703125 C 135.628906 197.085938 135.476562 198.488281 135.199219 199.867188 C 135.101562 200.34375 135.039062 200.761719 135.320312 201.171875 C 134.382812 202.464844 134.585938 204.046875 134.289062 205.492188 C 133.789062 207.917969 133.457031 210.375 133.050781 212.820312 C 132.652344 213.324219 132.117188 213.226562 131.589844 213.152344 C 130.707031 212.601562 130.144531 211.792969 129.679688 210.898438 C 129.75 210.28125 130.265625 210.003906 130.660156 209.628906 C 133.789062 206.621094 134.550781 201.304688 132.34375 197.855469 C 130.820312 195.472656 128.492188 194.429688 125.824219 193.9375 C 124.996094 193.785156 124.046875 193.882812 123.492188 193.011719 C 123.152344 191.8125 123.585938 190.632812 123.613281 189.445312 C 123.675781 186.867188 123.402344 184.300781 123.335938 181.730469 C 123.308594 181.050781 123.242188 180.335938 123.75 179.757812 Z M 123.75 179.757812 " fill-opacity="1" fill-rule="nonzero"/><path fill="#ae57db" d="M 104.445312 62.152344 C 102.859375 62.207031 101.410156 61.792969 100.097656 60.898438 C 97.742188 59.300781 95.378906 57.714844 93.039062 56.097656 C 91.382812 54.957031 91.203125 53.792969 92.320312 52.117188 C 92.574219 51.734375 92.824219 51.351562 93.09375 50.976562 C 94.183594 49.480469 95.34375 49.25 96.875 50.28125 C 98.933594 51.664062 100.984375 53.042969 102.996094 54.503906 C 103.785156 55.074219 104.199219 54.972656 104.71875 54.160156 C 106.058594 52.074219 107.484375 50.042969 108.894531 48.007812 C 109.933594 46.503906 110.953125 46.277344 112.542969 47.152344 C 112.816406 47.308594 113.09375 47.484375 113.371094 47.664062 C 115.890625 49.339844 116.042969 50.074219 114.363281 52.535156 C 112.859375 54.746094 111.324219 56.910156 109.847656 59.121094 C 108.460938 61.175781 106.457031 61.976562 104.445312 62.152344 Z M 104.445312 62.152344 " fill-opacity="1" fill-rule="nonzero"/><path fill="#01bfd9" d="M 31.332031 171.636719 C 31.25 172.761719 30.914062 173.808594 30.328125 174.773438 C 28.863281 177.101562 27.425781 179.449219 25.964844 181.78125 C 24.9375 183.410156 23.960938 183.636719 22.28125 182.660156 C 21.925781 182.453125 21.574219 182.238281 21.222656 182.015625 C 19.433594 180.886719 19.210938 179.96875 20.328125 178.144531 C 21.546875 176.152344 22.742188 174.136719 24.035156 172.1875 C 24.527344 171.445312 24.390625 171.144531 23.683594 170.726562 C 21.667969 169.535156 19.691406 168.277344 17.703125 167.042969 C 15.921875 165.9375 15.699219 165 16.796875 163.171875 C 16.984375 162.855469 17.179688 162.546875 17.378906 162.238281 C 18.53125 160.453125 19.429688 160.230469 21.261719 161.351562 C 23.65625 162.8125 26.03125 164.296875 28.382812 165.796875 C 30.414062 167.097656 31.296875 169.03125 31.332031 171.636719 Z M 31.332031 171.636719 " fill-opacity="1" fill-rule="nonzero"/><path fill="#4e356f" d="M 174.222656 112.292969 C 174.027344 113.738281 174.222656 115.578125 172.804688 117.011719 C 171.234375 118.613281 169.425781 118.617188 167.90625 116.957031 C 166.984375 115.949219 166.507812 114.699219 166.03125 113.460938 C 165.25 111.421875 164.136719 109.804688 162.019531 108.839844 C 160.230469 108 158.753906 106.78125 157.597656 105.183594 C 156.175781 103.246094 156.695312 101.683594 158.957031 100.953125 C 165.992188 98.691406 174.203125 104.625 174.222656 112.292969 Z M 174.222656 112.292969 " fill-opacity="1" fill-rule="nonzero"/><path fill="#4e356f" d="M 146.515625 74.605469 C 146.515625 80.15625 143.199219 83.320312 138.386719 82.621094 C 135.640625 82.222656 134.871094 80.667969 136.273438 78.285156 C 137.078125 76.886719 137.359375 75.390625 137.125 73.796875 C 136.890625 71.84375 137.257812 70.054688 138.816406 68.664062 C 140.71875 66.964844 143.449219 67.191406 144.984375 69.234375 C 146.226562 70.878906 146.601562 72.785156 146.515625 74.605469 Z M 146.515625 74.605469 " fill-opacity="1" fill-rule="nonzero"/><path fill="#4e356f" d="M 77.765625 121.105469 C 79.671875 121.222656 81.398438 122.210938 82.71875 123.839844 C 83.859375 125.238281 83.652344 127.046875 81.992188 128 C 79.660156 129.339844 77.667969 131.070312 75.570312 132.699219 C 73.9375 133.964844 71.980469 133.898438 70.285156 132.792969 C 69.039062 131.976562 68.4375 130.089844 68.816406 128.207031 C 69.550781 124.632812 73.894531 121.082031 77.765625 121.105469 Z M 77.765625 121.105469 " fill-opacity="1" fill-rule="nonzero"/><path fill="#4e356f" d="M 69.113281 92.558594 C 68.246094 92.601562 67.429688 92.417969 66.667969 92.003906 C 66.398438 91.867188 66.15625 91.699219 65.933594 91.5 C 65.710938 91.296875 65.519531 91.070312 65.355469 90.820312 C 65.191406 90.566406 65.0625 90.300781 64.972656 90.015625 C 64.878906 89.730469 64.824219 89.4375 64.808594 89.136719 C 64.792969 88.839844 64.816406 88.542969 64.878906 88.25 C 64.941406 87.957031 65.039062 87.675781 65.175781 87.40625 C 65.3125 87.140625 65.480469 86.894531 65.679688 86.671875 C 65.878906 86.449219 66.105469 86.257812 66.355469 86.09375 C 68.125 84.960938 70.027344 84.933594 71.867188 85.902344 C 73.222656 86.613281 73.988281 87.769531 73.800781 89.402344 C 73.628906 90.980469 72.625 91.808594 71.222656 92.304688 C 70.535156 92.511719 69.832031 92.597656 69.113281 92.558594 Z M 69.113281 92.558594 " fill-opacity="1" fill-rule="nonzero"/><path fill="#4e356f" d="M 46.132812 239.949219 C 47.914062 240.410156 49.703125 240.855469 51.179688 242.046875 C 50.027344 245.023438 48.863281 248 47.722656 250.984375 C 47.472656 251.636719 47.085938 251.996094 46.382812 251.8125 C 45.679688 251.628906 45.667969 251.085938 45.695312 250.496094 C 45.847656 246.980469 45.996094 243.464844 46.132812 239.949219 Z M 46.132812 239.949219 " fill-opacity="1" fill-rule="nonzero"/><path fill="#4e356f" d="M 132.5625 242.425781 C 134.125 241.429688 135.773438 240.597656 137.503906 239.9375 C 137.617188 243.191406 137.730469 246.441406 137.828125 249.695312 C 137.851562 250.4375 138.148438 251.382812 137 251.574219 C 135.851562 251.765625 135.847656 250.746094 135.574219 250.078125 C 134.566406 247.539062 133.570312 244.984375 132.5625 242.425781 Z M 132.5625 242.425781 " fill-opacity="1" fill-rule="nonzero"/><path fill="#3ec277" d="M 98.925781 93.914062 C 99 94.761719 98.546875 94.84375 97.902344 94.597656 C 95.46875 93.707031 92.953125 93.273438 90.363281 93.296875 C 90.074219 93.296875 89.792969 93.261719 89.515625 93.191406 C 89.238281 93.121094 88.972656 93.019531 88.722656 92.886719 C 88.46875 92.753906 88.234375 92.59375 88.019531 92.402344 C 87.808594 92.210938 87.617188 92 87.457031 91.765625 C 87.292969 91.53125 87.160156 91.277344 87.058594 91.011719 C 86.957031 90.746094 86.886719 90.46875 86.851562 90.183594 C 86.816406 89.902344 86.8125 89.617188 86.847656 89.332031 C 86.878906 89.050781 86.945312 88.773438 87.046875 88.503906 C 87.441406 87.453125 87.367188 86.570312 86.71875 85.664062 C 86.066406 84.746094 85.644531 83.734375 85.460938 82.625 C 85.25 81.359375 85.097656 79.957031 86.347656 79.097656 C 87.597656 78.238281 88.9375 78.652344 90.125 79.328125 C 91.863281 80.320312 91.835938 80.363281 93.246094 78.777344 C 93.925781 78.015625 95.007812 78.019531 95.800781 78.8125 C 96.050781 79.027344 96.222656 79.292969 96.316406 79.609375 C 96.609375 81.320312 97.320312 81.96875 99.152344 81.265625 C 100.085938 80.914062 101.269531 82.246094 101.382812 83.398438 C 101.488281 84.507812 101.183594 85.589844 101.125 86.683594 C 101.023438 88.511719 100.71875 90.335938 100.847656 92.175781 C 100.871094 92.894531 100.664062 93.539062 100.226562 94.109375 C 99.417969 94.550781 99.285156 93.835938 99.121094 93.390625 C 98.460938 91.585938 97.527344 89.9375 96.316406 88.441406 C 95.109375 86.945312 93.691406 85.683594 92.066406 84.65625 C 91.894531 84.585938 91.734375 84.488281 91.515625 84.402344 C 91.699219 84.523438 91.894531 84.632812 92.09375 84.730469 C 93.523438 85.621094 94.785156 86.707031 95.886719 87.984375 C 96.984375 89.257812 97.871094 90.667969 98.539062 92.214844 C 98.808594 92.757812 99.179688 93.277344 98.925781 93.914062 Z M 98.925781 93.914062 " fill-opacity="1" fill-rule="nonzero"/><path fill="#f9f9fb" d="M 153.566406 141.378906 C 151.078125 141.378906 148.589844 141.378906 146.121094 141.378906 C 145.378906 141.402344 144.652344 141.304688 143.945312 141.082031 C 143.3125 140.867188 142.957031 140.417969 143.0625 139.714844 C 143.167969 139.011719 143.679688 138.800781 144.277344 138.90625 C 145.3125 139.085938 145.679688 138.824219 145.449219 137.707031 C 145.40625 137.542969 145.402344 137.378906 145.441406 137.214844 C 145.476562 137.050781 145.546875 136.90625 145.65625 136.777344 C 145.761719 136.648438 145.894531 136.550781 146.050781 136.484375 C 146.203125 136.421875 146.363281 136.394531 146.53125 136.40625 C 147.636719 136.40625 147.855469 135.835938 147.914062 134.84375 C 148.117188 131.871094 149.847656 130.273438 152.464844 130.503906 C 154.15625 130.652344 155.246094 131.609375 155.523438 133.328125 C 155.703125 134.433594 156.046875 135.03125 157.378906 134.917969 C 159.425781 134.746094 161.074219 136.324219 161.234375 138.410156 C 161.28125 139.042969 161.546875 139.179688 162.105469 139.136719 C 162.800781 139.085938 163.644531 139.015625 163.671875 139.988281 C 163.703125 141.046875 162.859375 141.351562 161.964844 141.371094 C 159.164062 141.390625 156.359375 141.371094 153.554688 141.371094 Z M 153.566406 141.378906 " fill-opacity="1" fill-rule="nonzero"/><path fill="#3ec277" d="M 140.632812 146.0625 C 140.523438 147.90625 139.90625 149.558594 138.785156 151.023438 C 138.050781 152.015625 137.148438 152.5625 136 151.578125 C 135.539062 151.175781 135.199219 151.300781 134.832031 151.714844 C 134.476562 152.136719 134.085938 152.519531 133.65625 152.859375 C 133.101562 153.261719 132.507812 153.667969 131.769531 153.242188 C 131.078125 152.839844 130.640625 152.226562 130.703125 151.441406 C 130.796875 150.246094 130.582031 149.746094 129.191406 150.113281 C 127.800781 150.484375 125.925781 149.195312 125.492188 147.832031 C 125.058594 146.46875 125.625 145.222656 127.023438 144.980469 C 128.746094 144.679688 129.703125 143.980469 129.890625 142.101562 C 130.007812 140.949219 131.171875 140.785156 132.191406 140.964844 C 133.070312 141.160156 133.816406 141.585938 134.4375 142.238281 C 134.847656 142.628906 135.113281 142.855469 135.632812 142.261719 C 136.613281 141.128906 137.292969 141.15625 138.433594 142.121094 C 139.375 142.90625 139.941406 143.960938 140.585938 144.964844 C 139.898438 145.53125 139.03125 145.484375 138.230469 145.578125 C 137.039062 145.722656 135.875 145.964844 134.707031 146.203125 C 133.765625 146.390625 132.84375 146.644531 131.941406 146.960938 C 134.273438 146.300781 136.59375 145.578125 139.0625 145.703125 C 139.613281 145.71875 140.1875 145.617188 140.632812 146.0625 Z M 140.632812 146.0625 " fill-opacity="1" fill-rule="nonzero"/><path fill="#f9f9fb" d="M 116.972656 75.679688 C 115.273438 75.679688 113.578125 75.679688 111.882812 75.679688 C 111.523438 75.679688 111.15625 75.710938 110.824219 75.480469 C 110.269531 75.105469 109.691406 74.746094 109.972656 73.957031 C 110.019531 73.796875 110.097656 73.65625 110.210938 73.53125 C 110.320312 73.40625 110.449219 73.308594 110.601562 73.242188 C 110.753906 73.175781 110.914062 73.144531 111.078125 73.144531 C 111.246094 73.148438 111.402344 73.1875 111.550781 73.257812 C 112.621094 73.691406 112.839844 73.242188 113.03125 72.292969 C 113.285156 71.011719 114.117188 70.140625 115.519531 70.140625 C 116.347656 70.140625 116.625 69.765625 116.761719 69.035156 C 116.84375 68.445312 117.015625 67.878906 117.273438 67.339844 C 117.898438 66.144531 118.933594 65.488281 120.289062 65.558594 C 120.613281 65.585938 120.925781 65.667969 121.21875 65.804688 C 121.515625 65.941406 121.78125 66.121094 122.015625 66.347656 C 122.25 66.574219 122.441406 66.832031 122.589844 67.121094 C 122.734375 67.414062 122.828125 67.722656 122.871094 68.042969 C 123.042969 69.148438 123.167969 69.839844 124.605469 69.382812 C 125.613281 69.0625 126.484375 70.023438 126.539062 71.339844 C 126.578125 72.414062 126.398438 73.445312 127.996094 73.601562 C 128.585938 73.65625 128.789062 74.429688 128.335938 75.054688 C 127.882812 75.679688 127.289062 75.722656 126.617188 75.730469 C 125.015625 75.746094 123.410156 75.8125 121.804688 75.828125 C 120.203125 75.84375 118.59375 75.828125 116.984375 75.828125 Z M 116.972656 75.679688 " fill-opacity="1" fill-rule="nonzero"/><path fill="#f9f9fb" d="M 85.703125 114.324219 C 82.808594 114.324219 79.917969 114.304688 77.023438 114.324219 C 76.128906 114.324219 75.421875 114.097656 75.363281 113.125 C 75.308594 112.292969 75.703125 111.707031 76.6875 111.808594 C 77.308594 111.871094 77.421875 111.320312 77.613281 110.945312 C 78.285156 109.644531 79.160156 108.90625 80.703125 109.589844 C 81.214844 109.816406 81.507812 109.570312 81.792969 109.09375 C 82.898438 107.234375 84.105469 107.039062 85.628906 108.453125 C 86.023438 108.816406 86.367188 109.03125 86.796875 108.617188 C 87.226562 108.199219 87.566406 108.230469 87.960938 108.640625 C 88.359375 109.050781 88.554688 108.75 88.769531 108.394531 C 89.378906 107.386719 90.21875 106.882812 91.429688 107.289062 C 92.640625 107.695312 93.054688 108.671875 93.117188 109.855469 C 93.214844 111.707031 93.257812 111.742188 95.109375 111.816406 C 95.882812 111.847656 96.644531 111.953125 96.710938 112.933594 C 96.769531 113.855469 95.988281 114.019531 95.328125 114.195312 C 94.878906 114.285156 94.421875 114.320312 93.964844 114.296875 C 91.210938 114.328125 88.453125 114.324219 85.703125 114.324219 Z M 85.703125 114.324219 " fill-opacity="1" fill-rule="nonzero"/><path fill="#ed94ab" d="M 126.539062 105.667969 C 124.679688 105.828125 124 105.28125 123.800781 103.480469 C 122.96875 95.910156 127.566406 90.605469 135.226562 90.296875 C 139.398438 90.125 143.03125 91.195312 145.664062 94.664062 C 146.417969 95.660156 146.824219 96.839844 147.238281 98.007812 C 147.40625 98.484375 147.539062 98.992188 146.984375 99.351562 C 146.558594 99.089844 146.40625 98.644531 146.21875 98.230469 C 143.902344 93.070312 136.578125 90.574219 131.476562 92.320312 C 129.765625 92.90625 128.363281 93.964844 127.523438 95.574219 C 126.167969 98.09375 125.496094 100.785156 125.5 103.644531 C 125.5 104.199219 125.539062 104.75 126.054688 105.117188 C 126.179688 105.164062 126.296875 105.226562 126.410156 105.304688 C 126.53125 105.398438 126.574219 105.519531 126.539062 105.667969 Z M 126.539062 105.667969 " fill-opacity="1" fill-rule="nonzero"/><path fill="#f3a030" d="M 126.257812 105.378906 C 125.59375 105.617188 125.34375 105.226562 125.1875 104.679688 C 124.277344 101.433594 126.890625 94.527344 129.746094 92.765625 C 132.324219 91.171875 135.152344 91.070312 137.988281 91.746094 C 142.019531 92.699219 145.246094 94.785156 146.875 98.8125 C 146.929688 98.988281 146.964844 99.167969 146.984375 99.351562 L 146.449219 99.75 C 145.59375 99.855469 145.265625 99.164062 144.832031 98.660156 C 143.515625 97.136719 142.34375 95.507812 140.582031 94.390625 C 136.710938 91.925781 129.671875 92.632812 127.742188 98.851562 C 127.238281 100.570312 126.867188 102.316406 126.636719 104.089844 C 126.574219 104.535156 126.636719 105.027344 126.257812 105.378906 Z M 126.257812 105.378906 " fill-opacity="1" fill-rule="nonzero"/><path fill="#f1e45d" d="M 126.257812 105.378906 C 126.269531 102.785156 126.757812 100.285156 127.722656 97.878906 C 129.878906 92.585938 136.160156 91.546875 140.375 93.835938 C 142.335938 94.902344 143.632812 96.632812 144.992188 98.300781 C 145.40625 98.855469 145.890625 99.335938 146.449219 99.746094 C 146.125 100.25 145.664062 100.515625 145.066406 100.546875 C 144.105469 100.300781 143.636719 99.441406 142.976562 98.832031 C 141.695312 97.65625 140.574219 96.320312 139.027344 95.429688 C 135.039062 93.136719 131.566406 95.089844 129.789062 98.398438 C 128.820312 100.203125 128.519531 102.222656 128.261719 104.230469 C 128.125 105.289062 127.683594 105.847656 126.539062 105.488281 Z M 126.257812 105.378906 " fill-opacity="1" fill-rule="nonzero"/><path fill="#3ec277" d="M 108.878906 85.640625 C 108.820312 85.933594 108.734375 86.132812 108.328125 86.070312 C 105.863281 85.6875 102.851562 82.71875 102.371094 80.164062 C 101.976562 78.066406 103.476562 76.671875 105.542969 77.230469 C 107.675781 77.804688 109.5625 80.1875 109.867188 82.757812 C 109.910156 83.441406 109.917969 84.125 109.882812 84.8125 C 109.035156 85.152344 108.734375 84.410156 108.375 83.960938 C 107.742188 83.179688 107.125 82.394531 106.714844 81.953125 C 107.28125 82.503906 107.949219 83.503906 108.710938 84.414062 C 109.027344 84.78125 109.238281 85.175781 108.878906 85.640625 Z M 108.878906 85.640625 " fill-opacity="1" fill-rule="nonzero"/><path fill="#f3a030" d="M 128.046875 88.882812 C 127.578125 88.675781 127.292969 88.320312 127.191406 87.816406 C 126.871094 86.863281 126.570312 86.046875 125.273438 86.640625 C 124.671875 86.917969 124.441406 86.3125 124.367188 85.882812 C 124.089844 84.5 123.605469 83.761719 122.070312 84.625 C 121.351562 85.027344 120.710938 84.496094 120.292969 83.941406 C 119.691406 83.136719 119.1875 82.246094 118.660156 81.402344 C 118.382812 80.992188 118.621094 80.71875 118.886719 80.4375 C 120.238281 79.003906 121 79.019531 122.164062 80.582031 C 122.71875 81.3125 123.214844 81.28125 123.90625 80.808594 C 125.472656 79.742188 125.480469 79.761719 126.039062 81.511719 C 126.28125 82.277344 126.515625 83.03125 127.601562 82.863281 C 128.214844 82.765625 128.394531 83.222656 128.398438 83.734375 C 128.421875 85.421875 128.441406 87.109375 128.046875 88.882812 Z M 128.046875 88.882812 " fill-opacity="1" fill-rule="nonzero"/><path fill="#3ec277" d="M 138.65625 124.804688 C 136.800781 125.324219 136.21875 125.023438 135.644531 123.132812 C 134.949219 120.964844 134.949219 118.800781 135.644531 116.636719 C 135.949219 115.699219 136.242188 114.5 137.558594 114.648438 C 137.859375 114.679688 138.144531 114.757812 138.421875 114.882812 C 138.695312 115.003906 138.945312 115.167969 139.167969 115.371094 C 139.390625 115.570312 139.578125 115.804688 139.730469 116.066406 C 139.878906 116.328125 139.984375 116.605469 140.046875 116.902344 C 140.777344 119.738281 140.101562 122.347656 138.648438 124.8125 Z M 138.65625 124.804688 " fill-opacity="1" fill-rule="nonzero"/><path fill="#3ec277" d="M 110.824219 96.585938 C 108.335938 96.679688 105.824219 96.765625 103.957031 94.664062 C 103.113281 93.714844 102.148438 92.714844 102.851562 91.277344 C 103.324219 90.285156 104.945312 89.988281 106.597656 90.539062 C 109.011719 91.339844 111.101562 92.578125 112.242188 94.996094 C 112.953125 96.101562 112.816406 96.4375 111.644531 96.511719 C 111.367188 96.492188 111.09375 96.515625 110.824219 96.585938 Z M 110.824219 96.585938 " fill-opacity="1" fill-rule="nonzero"/><path fill="#3ec277" d="M 144.480469 117.679688 C 142.820312 115.847656 143.761719 110.214844 145.90625 109.035156 C 147.605469 108.101562 149.726562 109.398438 149.992188 111.488281 C 150.316406 114.023438 148.828125 115.589844 147.097656 117.035156 C 146.765625 117.28125 146.417969 117.5 146.058594 117.699219 C 145.011719 116.59375 146.378906 116.015625 146.410156 115.210938 C 146.046875 115.65625 145.90625 116.371094 145.550781 116.960938 C 145.300781 117.359375 145.171875 117.929688 144.480469 117.679688 Z M 144.480469 117.679688 " fill-opacity="1" fill-rule="nonzero"/><path fill="#3ec277" d="M 109.414062 110.195312 C 107.847656 109.089844 106.097656 108.207031 105.050781 106.5 C 104.375 105.394531 103.800781 104.289062 104.105469 102.90625 C 104.527344 100.972656 105.984375 100.316406 107.679688 101.40625 C 109.238281 102.40625 109.925781 104.007812 110.472656 105.675781 C 110.605469 106.066406 110.679688 106.476562 110.777344 106.875 C 111.363281 108.375 110.667969 110.0625 109.414062 110.195312 Z M 109.414062 110.195312 " fill-opacity="1" fill-rule="nonzero"/><path fill="#3ec277" d="M 113.464844 92.265625 C 114.28125 90.539062 115.441406 89.085938 116.941406 87.90625 C 118.496094 86.640625 120.191406 86.652344 121.417969 87.8125 C 121.746094 88.082031 121.957031 88.425781 122.050781 88.84375 C 122.148438 89.257812 122.105469 89.65625 121.929688 90.042969 C 121.46875 91.253906 120.65625 92.148438 119.488281 92.71875 C 117.617188 93.722656 115.597656 93.964844 113.511719 93.910156 C 112.503906 93.644531 112.496094 93.285156 113.464844 92.265625 Z M 113.464844 92.265625 " fill-opacity="1" fill-rule="nonzero"/><path fill="#4ea9a3" d="M 126.53125 105.488281 C 127.542969 105.488281 127.914062 105.019531 128.007812 103.96875 C 128.261719 101.011719 128.835938 98.144531 131.152344 95.953125 C 133.363281 93.882812 136.046875 93.464844 138.742188 94.871094 C 141.328125 96.214844 143.164062 98.421875 145.0625 100.535156 C 144.941406 101.1875 144.394531 101.34375 143.894531 101.554688 C 142.492188 100.941406 141.679688 99.65625 140.617188 98.671875 C 139.804688 97.863281 138.882812 97.203125 137.855469 96.691406 C 135.007812 95.402344 132.101562 97.050781 130.984375 99.273438 C 130.308594 100.609375 130.046875 102.039062 129.894531 103.503906 C 129.8125 104.257812 129.828125 105.089844 128.972656 105.503906 C 128.175781 105.667969 127.382812 105.933594 126.554688 105.65625 C 126.542969 105.601562 126.535156 105.542969 126.53125 105.488281 Z M 126.53125 105.488281 " fill-opacity="1" fill-rule="nonzero"/><path fill="#3ec277" d="M 140.320312 123.941406 L 140.566406 123.722656 C 141.25 123.292969 141.851562 122.617188 142.796875 122.894531 C 144.214844 122.828125 145.597656 122.453125 147.035156 122.570312 C 148.746094 122.710938 149.980469 123.4375 150.1875 124.535156 C 150.398438 125.632812 149.449219 126.929688 147.921875 127.644531 C 147.226562 127.992188 146.492188 128.136719 145.714844 128.074219 C 144.941406 128.007812 144.238281 127.75 143.609375 127.289062 C 142.523438 126.53125 141.398438 125.835938 140.316406 125.078125 C 139.953125 124.699219 140.046875 124.320312 140.320312 123.941406 Z M 140.320312 123.941406 " fill-opacity="1" fill-rule="nonzero"/><path fill="#3ec277" d="M 128.695312 129.054688 C 127.832031 128.792969 127.457031 128.101562 127.375 127.300781 C 127.132812 125.011719 127.511719 122.820312 128.757812 120.863281 C 129.355469 119.933594 130.09375 119.027344 131.441406 119.605469 C 132.519531 120.066406 133.148438 121.4375 132.957031 122.660156 C 132.535156 125.34375 131.019531 127.355469 129.027344 129.042969 C 128.917969 129.117188 128.808594 129.121094 128.695312 129.054688 Z M 128.695312 129.054688 " fill-opacity="1" fill-rule="nonzero"/><path fill="#acdaf0" d="M 128.960938 105.515625 C 129.703125 104.277344 129.492188 102.839844 129.816406 101.511719 C 130.460938 98.859375 131.675781 96.753906 134.578125 96.042969 C 136.679688 95.527344 138.40625 96.300781 139.902344 97.578125 C 141.324219 98.800781 142.570312 100.230469 143.890625 101.566406 C 142.9375 102.335938 142.261719 102.054688 141.652344 101.070312 C 141.378906 100.621094 140.886719 100.289062 140.460938 99.949219 C 136.363281 96.652344 131.921875 98.289062 130.945312 103.445312 C 130.875 103.804688 130.816406 104.171875 130.785156 104.53125 C 130.667969 105.785156 130.074219 106.132812 128.960938 105.515625 Z M 128.960938 105.515625 " fill-opacity="1" fill-rule="nonzero"/><path fill="#3ec277" d="M 108.304688 116.863281 C 110.070312 115.578125 111.523438 113.855469 113.617188 113.019531 C 115.273438 112.347656 116.71875 112.765625 117.261719 114.070312 C 117.871094 115.535156 117.273438 116.832031 115.566406 117.601562 C 113.457031 118.566406 111.210938 118.542969 108.960938 118.410156 C 108.46875 118.382812 108.167969 117.996094 107.9375 117.582031 C 107.839844 117.230469 107.902344 116.960938 108.304688 116.863281 Z M 108.304688 116.863281 " fill-opacity="1" fill-rule="nonzero"/><path fill="#526eb2" d="M 108.304688 116.863281 L 107.9375 117.582031 C 106.96875 116.753906 107.402344 115.761719 107.632812 114.816406 C 108.03125 113.207031 108.816406 111.742188 109.414062 110.207031 C 110.71875 109.449219 110.582031 108.097656 110.777344 106.890625 C 111.921875 104.15625 112.195312 101.265625 112.507812 98.351562 C 112.679688 96.777344 112.125 96.476562 110.824219 96.609375 C 111.535156 96.292969 113.035156 96.679688 112.226562 95.015625 C 112.46875 93.082031 112.007812 91.230469 111.285156 89.46875 C 110.707031 88.058594 109.90625 86.789062 108.878906 85.660156 C 108.816406 84.496094 107.773438 83.949219 107.25 83.066406 C 107 82.640625 106.695312 82.238281 106.167969 81.511719 C 107.449219 82.066406 107.921875 82.910156 108.511719 83.613281 C 108.917969 84.09375 109.179688 84.71875 109.894531 84.828125 C 110.722656 86.730469 112.125 88.339844 112.734375 90.375 C 112.921875 91.007812 112.621094 91.890625 113.460938 92.285156 C 113.523438 92.835938 112.328125 93.414062 113.507812 93.929688 C 113.722656 97.820312 113.371094 101.65625 112.449219 105.441406 C 112.46875 106.074219 112.285156 106.640625 111.898438 107.140625 C 110.984375 110.027344 109.179688 112.550781 108.492188 115.53125 C 108.371094 115.964844 108.308594 116.410156 108.304688 116.863281 Z M 108.304688 116.863281 " fill-opacity="1" fill-rule="nonzero"/><path fill="#f3a030" d="M 100.738281 125.308594 C 98.800781 125.464844 97.042969 125.128906 95.273438 125.0625 C 94.328125 125.023438 94.425781 124.277344 94.496094 123.625 C 94.710938 121.527344 94.730469 121.476562 92.839844 120.976562 C 91.734375 120.683594 91.402344 120.175781 91.816406 119.097656 C 92.527344 117.261719 92.941406 116.929688 94.183594 117.507812 C 95.429688 118.089844 96.550781 118.710938 97.714844 119.351562 C 98.386719 119.722656 98.59375 120.300781 98.140625 120.96875 C 97.375 122.105469 97.917969 122.847656 98.84375 123.496094 C 99.515625 123.964844 100.261719 124.351562 100.738281 125.308594 Z M 100.738281 125.308594 " fill-opacity="1" fill-rule="nonzero"/><path fill="#3ec277" d="M 126.226562 131.09375 C 127.910156 131.789062 129.308594 132.855469 130.421875 134.292969 C 130.601562 134.546875 130.730469 134.820312 130.8125 135.117188 C 130.894531 135.414062 130.925781 135.714844 130.898438 136.023438 C 130.875 136.332031 130.796875 136.625 130.667969 136.902344 C 130.535156 137.183594 130.363281 137.433594 130.144531 137.648438 C 129.207031 138.632812 128.238281 138.308594 127.320312 137.648438 C 126.214844 136.890625 125.300781 135.945312 124.582031 134.8125 C 123.863281 133.679688 123.394531 132.449219 123.175781 131.128906 C 122.96875 130.648438 123.234375 130.394531 123.644531 130.375 C 124.570312 130.34375 125.597656 130.019531 126.226562 131.09375 Z M 126.226562 131.09375 " fill-opacity="1" fill-rule="nonzero"/><path fill="#3ec277" d="M 111.890625 107.121094 C 111.871094 106.488281 111.953125 105.886719 112.445312 105.421875 C 113.496094 104.617188 114.535156 103.796875 115.605469 103.019531 C 116.828125 102.132812 118.25 102.011719 119.679688 102.191406 C 121.113281 102.371094 121.644531 103.679688 120.867188 104.859375 C 120.386719 105.632812 119.746094 106.246094 118.953125 106.695312 C 118.160156 107.144531 117.308594 107.378906 116.398438 107.394531 C 114.886719 107.480469 113.382812 107.390625 111.890625 107.121094 Z M 111.890625 107.121094 " fill-opacity="1" fill-rule="nonzero"/><path fill="#3ec277" d="M 135.605469 128.121094 C 137.230469 128.261719 138.738281 128.765625 140.128906 129.625 C 141.398438 130.425781 141.585938 131.609375 141.386719 132.867188 C 141.21875 133.925781 140.261719 134.019531 139.421875 133.828125 C 136.519531 133.15625 134.023438 131.808594 132.3125 129.253906 C 133.101562 128.003906 134.253906 127.605469 135.605469 128.121094 Z M 135.605469 128.121094 " fill-opacity="1" fill-rule="nonzero"/><path fill="#526eb1" d="M 135.605469 128.121094 C 134.363281 128.082031 133.265625 128.457031 132.3125 129.257812 C 130.589844 129.875 128.851562 130.433594 127.019531 130.625 C 126.671875 130.640625 126.40625 130.796875 126.226562 131.09375 C 125.46875 130.71875 124.671875 130.550781 123.828125 130.585938 C 123.441406 130.613281 123.226562 130.757812 123.175781 131.136719 C 121.023438 131.082031 118.894531 131.234375 116.820312 131.882812 C 116.5 131.984375 116.136719 132.082031 115.992188 131.71875 C 115.796875 131.25 116.230469 131.050781 116.542969 130.945312 C 118.105469 130.394531 119.710938 130.105469 121.367188 130.082031 C 123.511719 130.097656 125.640625 129.914062 127.753906 129.53125 C 128.128906 129.460938 128.472656 129.402344 128.695312 129.066406 L 129.035156 129.066406 C 132.5625 128.371094 135.910156 127.28125 138.65625 124.824219 L 138.644531 124.824219 C 139.367188 124.847656 139.628906 123.996094 140.320312 123.953125 C 140.320312 124.332031 140.320312 124.714844 140.320312 125.097656 C 138.882812 126.308594 137.1875 127.140625 135.605469 128.121094 Z M 135.605469 128.121094 " fill-opacity="1" fill-rule="nonzero"/><path fill="#516fb1" d="M 140.632812 146.0625 C 137.570312 145.863281 134.609375 146.324219 131.753906 147.445312 C 131.425781 147.566406 131.019531 147.875 130.8125 147.378906 C 130.609375 146.882812 131.148438 146.777344 131.449219 146.695312 C 134.441406 145.832031 137.464844 145.132812 140.585938 144.949219 C 144.527344 144.871094 148.464844 144.804688 152.328125 145.777344 C 152.605469 145.847656 152.863281 145.90625 153.117188 145.996094 C 153.234375 146.019531 153.332031 146.078125 153.40625 146.175781 C 153.480469 146.269531 153.511719 146.378906 153.503906 146.496094 C 153.464844 146.851562 153.160156 146.921875 152.886719 146.878906 C 151.941406 146.722656 151.007812 146.46875 150.054688 146.355469 C 146.925781 146.007812 143.796875 145.472656 140.632812 146.0625 Z M 140.632812 146.0625 " fill-opacity="1" fill-rule="nonzero"/><path fill="#516fb0" d="M 92.027344 84.453125 C 95.730469 86.363281 97.941406 89.507812 99.433594 93.257812 C 99.605469 93.683594 99.585938 94.191406 100.246094 94.121094 C 101.464844 96.378906 102.425781 98.738281 103.128906 101.207031 C 103.273438 101.683594 103.582031 102.324219 102.976562 102.519531 C 102.28125 102.746094 102.347656 101.96875 102.203125 101.542969 C 101.335938 98.898438 100.453125 96.269531 98.921875 93.914062 C 97.652344 90.101562 95.191406 87.210938 91.984375 84.886719 C 91.929688 84.820312 91.90625 84.746094 91.914062 84.660156 C 91.921875 84.574219 91.960938 84.507812 92.027344 84.453125 Z M 92.027344 84.453125 " fill-opacity="1" fill-rule="nonzero"/><path fill="#516fb0" d="M 142.796875 122.90625 L 140.566406 123.734375 C 141.875 122.351562 143.085938 120.910156 143.9375 119.199219 C 144.175781 118.71875 144.488281 118.261719 144.488281 117.6875 C 145.289062 117.464844 145.292969 116.667969 145.628906 116.109375 C 145.90625 115.660156 145.90625 115.046875 146.53125 114.726562 C 146.839844 115.390625 146.410156 115.855469 146.210938 116.355469 C 146.039062 116.796875 145.59375 117.203125 146.070312 117.710938 Z M 142.796875 122.90625 " fill-opacity="1" fill-rule="nonzero"/><path fill="#915273" d="M 118.792969 146.101562 C 118.195312 147.363281 117.375 148.457031 116.328125 149.382812 L 118.484375 145.511719 C 118.488281 145.761719 118.589844 145.957031 118.792969 146.101562 Z M 118.792969 146.101562 " fill-opacity="1" fill-rule="nonzero"/><path fill="#2fa760" d="M 131.484375 212.933594 L 133.042969 212.820312 C 134.378906 213.316406 135.734375 213.816406 136.800781 214.78125 C 138.734375 216.535156 138.578125 218.902344 136.410156 220.335938 C 133.800781 222.070312 130.792969 222.734375 127.785156 223.363281 C 123.914062 224.171875 120 224.355469 116.097656 224.800781 C 106.710938 225.894531 97.296875 226.324219 87.847656 226.085938 C 84.84375 226.003906 81.84375 225.570312 78.847656 225.257812 C 75.898438 224.9375 72.945312 224.644531 70.015625 224.179688 C 63.382812 223.117188 56.71875 222.292969 50.269531 220.296875 C 47.429688 219.414062 44.492188 218.820312 41.980469 217.089844 C 40.238281 215.886719 40.304688 214.367188 42.257812 213.476562 C 43.84375 212.75 45.441406 211.839844 47.324219 212.324219 C 47.460938 213.511719 48.105469 213.882812 49.289062 213.765625 C 51.824219 213.511719 54.371094 213.375 56.914062 213.191406 C 57.285156 213.464844 57.839844 213.058594 58.152344 213.53125 C 58.332031 216.234375 59.242188 217.03125 62.023438 217.1875 C 65.128906 217.359375 68.140625 216.6875 71.1875 216.355469 C 73.34375 216.613281 75.363281 217.417969 77.472656 217.882812 C 82.828125 219.03125 88.242188 219.621094 93.71875 219.65625 C 98.679688 219.722656 103.632812 219.542969 108.578125 219.3125 C 110.722656 219.210938 112.890625 219.203125 115.023438 218.859375 C 115.421875 218.839844 115.824219 218.8125 116.222656 218.832031 C 119.683594 218.964844 123.113281 218.832031 126.417969 217.621094 C 127.109375 217.367188 127.765625 217.027344 128.445312 216.753906 C 130.179688 216.042969 130.933594 214.578125 131.484375 212.933594 Z M 131.484375 212.933594 " fill-opacity="1" fill-rule="nonzero"/><path fill="#526fb2" d="M 115.230469 219.210938 C 113.214844 219.71875 111.128906 219.578125 109.085938 219.691406 C 102.867188 220.050781 96.632812 220.246094 90.402344 220.003906 C 84.34375 219.785156 78.414062 218.800781 72.609375 217.042969 C 72.085938 216.882812 71.542969 216.800781 71.007812 216.679688 C 66.878906 215.78125 63.164062 213.9375 59.617188 211.707031 C 56.976562 209.828125 54.589844 207.726562 53.042969 204.796875 C 52.3125 203.414062 52.1875 201.925781 51.992188 200.441406 C 52.070312 199.160156 52.3125 196.183594 52.46875 196.019531 C 53.710938 193.332031 56.0625 192.539062 58.753906 192.339844 C 59.34375 192.292969 59.9375 192.222656 60.527344 192.164062 C 61.75 191.835938 62.945312 191.921875 64.109375 192.417969 C 65.785156 193.003906 67.554688 193.171875 69.273438 193.5625 C 69.578125 193.632812 69.882812 193.742188 70.183594 193.839844 C 70.570312 194.066406 71.054688 193.996094 71.433594 194.257812 C 71.917969 194.167969 72.3125 194.492188 72.769531 194.550781 C 73.796875 194.9375 74.875 195.171875 75.894531 195.585938 C 80.660156 197.132812 85.222656 199.15625 89.785156 201.210938 C 97.214844 204.5625 105.015625 206.8125 112.921875 208.71875 C 113.816406 208.9375 114.898438 208.867188 115.464844 209.863281 C 115.800781 212.691406 115.601562 215.523438 115.582031 218.351562 C 115.574219 218.679688 115.457031 218.96875 115.230469 219.210938 Z M 115.230469 219.210938 " fill-opacity="1" fill-rule="nonzero"/><path fill="#526fb2" d="M 123.765625 193.230469 C 124.632812 193.363281 125.5 193.453125 126.351562 193.628906 C 133.625 195.128906 136.417969 202.824219 131.878906 208.804688 C 131.261719 209.636719 130.425781 210.1875 129.753906 210.941406 C 129.53125 211.03125 129.304688 211.035156 129.078125 210.960938 C 125.578125 209.824219 121.929688 209.601562 118.320312 209.5 C 114.355469 209.390625 110.664062 208.195312 106.910156 207.238281 C 102.65625 206.113281 98.476562 204.753906 94.375 203.160156 C 93.800781 202.941406 92.976562 202.9375 92.800781 202.082031 C 96.667969 201.308594 100.484375 200.4375 104.171875 199.023438 C 105.660156 198.453125 107.210938 198 108.59375 197.171875 C 109.339844 196.84375 109.992188 197.339844 110.695312 197.429688 C 112.222656 197.632812 113.734375 197.832031 115.226562 197.246094 C 116.726562 196.699219 117.894531 195.746094 118.734375 194.394531 C 119.035156 193.945312 119.3125 193.464844 119.867188 193.269531 C 121.15625 192.992188 122.460938 192.535156 123.765625 193.230469 Z M 123.765625 193.230469 " fill-opacity="1" fill-rule="nonzero"/><path fill="#4e356f" d="M 92.804688 202.082031 C 96.398438 203.851562 100.230469 204.929688 104.019531 206.125 C 107.460938 207.210938 110.925781 208.246094 114.519531 208.796875 C 116.769531 209.144531 119.074219 209.109375 121.347656 209.300781 C 124.210938 209.542969 127.101562 209.675781 129.765625 210.941406 C 130.5 211.46875 131.074219 212.132812 131.492188 212.9375 C 131.75 214.976562 130.503906 216.0625 128.933594 216.917969 C 124.953125 219.085938 120.640625 219.40625 116.21875 219.207031 C 116.332031 218.566406 116.917969 218.558594 117.359375 218.378906 C 118.324219 217.964844 119.339844 217.660156 120.199219 217.03125 C 121.984375 215.726562 122.160156 213.953125 120.632812 212.347656 C 119.59375 211.242188 118.222656 210.722656 116.820312 210.277344 C 116.265625 210.101562 115.652344 210.027344 115.191406 209.597656 C 105.402344 207.347656 95.785156 204.554688 86.6875 200.175781 C 83.144531 198.441406 79.496094 196.957031 75.746094 195.726562 C 75.6875 195.46875 75.746094 195.328125 76.039062 195.453125 C 78.511719 196.023438 80.796875 197.144531 83.199219 197.9375 C 84.1875 197.75 84.964844 198.34375 85.761719 198.722656 C 87.9375 199.757812 90.21875 200.570312 92.257812 201.882812 Z M 92.804688 202.082031 " fill-opacity="1" fill-rule="nonzero"/><path fill="#c08081" d="M 92.257812 201.863281 C 89.675781 201.148438 87.429688 199.652344 84.945312 198.710938 C 84.351562 198.480469 83.78125 198.183594 83.199219 197.917969 C 84.671875 196.402344 86.238281 194.960938 87.589844 193.347656 C 88.5625 192.1875 89.070312 192.796875 89.632812 193.597656 C 91.363281 196.074219 92.136719 198.867188 92.257812 201.863281 Z M 92.257812 201.863281 " fill-opacity="1" fill-rule="nonzero"/><path fill="#8c4c74" d="M 115.476562 197.4375 C 114.054688 198.445312 112.46875 197.949219 110.957031 197.855469 C 110.15625 197.808594 109.378906 197.410156 108.59375 197.171875 C 104.59375 195.105469 103.023438 191.523438 102.511719 187.324219 C 101.804688 181.609375 102.898438 176.011719 103.75 170.410156 C 104.375 166.292969 105.363281 162.246094 106.34375 158.199219 C 106.148438 156.414062 106.984375 154.855469 107.429688 153.222656 C 107.507812 153.105469 107.605469 153.007812 107.726562 152.929688 C 107.957031 152.929688 108.140625 152.964844 108.035156 153.269531 L 107.519531 156.058594 C 107.738281 156.667969 107.503906 157.242188 107.359375 157.808594 C 105.589844 164.851562 104.148438 171.960938 103.5625 179.203125 C 103.285156 182.566406 103.078125 185.992188 104 189.328125 C 104.832031 192.324219 106.394531 194.769531 109.253906 196.238281 C 110.515625 196.882812 111.855469 197.066406 113.253906 197.066406 C 114 197.039062 114.820312 196.820312 115.476562 197.4375 Z M 115.476562 197.4375 " fill-opacity="1" fill-rule="nonzero"/><path fill="#8c4c74" d="M 75.15625 181.6875 C 73.472656 181.105469 73.464844 181.105469 74.050781 179.453125 C 75.847656 174.292969 77.644531 169.140625 79.445312 163.992188 C 79.660156 163.285156 80.039062 162.679688 80.582031 162.175781 C 80.722656 163.203125 80.371094 164.003906 80.097656 164.792969 C 78.386719 169.734375 76.640625 174.660156 74.917969 179.597656 C 74.671875 180.3125 74.191406 181.128906 75.425781 181.460938 C 75.460938 181.683594 75.445312 181.839844 75.15625 181.6875 Z M 75.15625 181.6875 " fill-opacity="1" fill-rule="nonzero"/><path fill="#c2e3f7" d="M 64.109375 192.417969 C 62.902344 192.507812 61.707031 192.421875 60.527344 192.160156 C 59.59375 189.09375 59.234375 185.960938 59.449219 182.761719 C 60.105469 185.023438 60.609375 187.332031 61.808594 189.394531 C 62.449219 190.5 63.304688 191.433594 64.109375 192.417969 Z M 64.109375 192.417969 " fill-opacity="1" fill-rule="nonzero"/><path fill="#31a761" d="M 107.699219 153.027344 C 107.246094 154.75 106.792969 156.476562 106.335938 158.199219 C 106.164062 157.921875 105.882812 157.691406 105.84375 157.410156 C 105.472656 154.699219 103.75 153.515625 101.203125 153.230469 C 101.285156 152.871094 101.363281 152.515625 101.441406 152.15625 C 103.601562 151.925781 105.699219 152.128906 107.699219 153.027344 Z M 107.699219 153.027344 " fill-opacity="1" fill-rule="nonzero"/><path fill="#914e83" d="M 75.15625 181.6875 L 75.414062 181.457031 C 78.839844 182.882812 81.816406 185 84.535156 187.492188 C 84.601562 187.730469 84.558594 187.863281 84.273438 187.75 C 81.519531 185.308594 78.378906 183.4375 75.15625 181.6875 Z M 75.15625 181.6875 " fill-opacity="1" fill-rule="nonzero"/><path fill="#5d448a" d="M 76.039062 195.441406 L 75.746094 195.714844 L 72.679688 194.648438 C 72.585938 194.589844 72.554688 194.53125 72.585938 194.46875 C 72.613281 194.410156 72.644531 194.382812 72.679688 194.382812 C 73.824219 194.648438 74.984375 194.882812 76.039062 195.441406 Z M 76.039062 195.441406 " fill-opacity="1" fill-rule="nonzero"/><path fill="#99509a" d="M 84.28125 187.75 C 84.367188 187.664062 84.457031 187.578125 84.542969 187.492188 C 85.421875 188.09375 86.09375 188.875 86.5625 189.828125 Z M 84.28125 187.75 " fill-opacity="1" fill-rule="nonzero"/><path fill="#56498b" d="M 72.679688 194.394531 C 72.679688 194.480469 72.679688 194.570312 72.679688 194.667969 L 71.296875 194.367188 C 71.214844 194.308594 71.1875 194.25 71.214844 194.195312 C 71.242188 194.132812 71.269531 194.105469 71.296875 194.105469 C 71.785156 194.058594 72.246094 194.15625 72.679688 194.394531 Z M 72.679688 194.394531 " fill-opacity="1" fill-rule="nonzero"/><path fill="#5d4b92" d="M 71.300781 194.09375 L 71.300781 194.371094 C 70.953125 194.140625 70.472656 194.214844 70.183594 193.839844 C 70.578125 193.851562 70.996094 193.730469 71.300781 194.09375 Z M 71.300781 194.09375 " fill-opacity="1" fill-rule="nonzero"/><path fill="#ae57db" d="M 115.476562 197.4375 C 114.011719 197.398438 112.523438 197.652344 111.082031 197.289062 C 106.382812 196.109375 104.195312 192.679688 103.34375 188.242188 C 102.609375 184.375 102.914062 180.460938 103.371094 176.589844 C 104.175781 169.949219 105.441406 163.398438 107.167969 156.9375 C 107.261719 156.632812 107.375 156.335938 107.5 156.046875 C 108.328125 155.855469 109.179688 155.617188 110.03125 155.492188 C 112.113281 155.171875 113.730469 156.140625 115.203125 157.464844 C 115.757812 157.628906 115.925781 158.128906 116.117188 158.59375 C 118.828125 165.257812 120.398438 172.214844 121.367188 179.320312 C 122.003906 183.210938 121.503906 187.042969 120.785156 190.859375 C 120.605469 191.832031 120.421875 192.851562 119.59375 193.558594 C 118.667969 195.296875 117.539062 196.867188 115.476562 197.4375 Z M 115.476562 197.4375 " fill-opacity="1" fill-rule="nonzero"/><path fill="#2fa760" d="M 121.042969 179.175781 C 119.839844 171.734375 118.320312 164.378906 115.210938 157.449219 C 115.5 156.609375 115.792969 155.765625 116.089844 154.917969 C 117.746094 156.117188 118.394531 157.976562 119.035156 159.765625 C 121.074219 165.40625 122.214844 171.277344 123.183594 177.175781 C 123.308594 177.9375 123.878906 178.746094 123.144531 179.507812 C 122.359375 179.988281 121.683594 179.6875 121.042969 179.175781 Z M 121.042969 179.175781 " fill-opacity="1" fill-rule="nonzero"/><path fill="#fafaf9" d="M 107.699219 153.027344 L 101.441406 152.15625 C 101.695312 150.972656 102.410156 150.753906 103.480469 151.121094 C 104.925781 151.613281 106.40625 151.78125 107.925781 151.617188 C 108.480469 152.148438 108.003906 152.542969 107.746094 152.964844 Z M 107.699219 153.027344 " fill-opacity="1" fill-rule="nonzero"/><path fill="#8e4e72" d="M 111.628906 139.804688 C 112.789062 140.023438 114.085938 140.019531 114.410156 141.5625 C 114.484375 141.730469 114.609375 141.84375 114.785156 141.894531 C 115.136719 141.996094 115.65625 142.015625 115.203125 142.527344 C 114.878906 142.894531 114.257812 143.28125 113.933594 142.671875 C 113.289062 141.476562 112.585938 140.503906 111.074219 140.488281 C 110.976562 140.476562 110.902344 140.425781 110.855469 140.335938 C 110.804688 140.25 110.800781 140.160156 110.84375 140.070312 C 110.976562 139.640625 111.332031 139.757812 111.628906 139.804688 Z M 111.628906 139.804688 " fill-opacity="1" fill-rule="nonzero"/><path fill="#8e4f72" d="M 105.527344 136.628906 C 104.972656 136.707031 104.917969 136.257812 104.761719 135.960938 C 104.335938 135.132812 103.65625 134.808594 102.765625 134.746094 C 101.40625 134.652344 101.296875 134.421875 101.800781 133.019531 C 102.960938 133.800781 104.632812 133.847656 105.28125 135.386719 C 105.449219 135.785156 105.742188 136.164062 105.527344 136.628906 Z M 105.527344 136.628906 " fill-opacity="1" fill-rule="nonzero"/><path fill="#905073" d="M 92.964844 131.601562 C 94.480469 129.886719 95.390625 129.789062 96.835938 130.96875 C 96.871094 130.996094 96.835938 131.070312 96.800781 131.058594 C 95.863281 130.765625 95.445312 130.355469 95.167969 130.84375 C 94.980469 131.171875 95.207031 132.074219 95.304688 132.65625 C 95.34375 132.902344 95.332031 133.277344 94.925781 133.207031 C 94.785156 133.171875 94.671875 133.09375 94.59375 132.96875 C 94.515625 132.847656 94.488281 132.710938 94.515625 132.566406 C 94.550781 132.015625 94.691406 131.019531 94.339844 130.910156 C 94.109375 130.828125 93.636719 131.703125 93.09375 131.753906 C 93.035156 131.757812 92.933594 131.636719 92.964844 131.601562 Z M 92.964844 131.601562 " fill-opacity="1" fill-rule="nonzero"/><path fill="#8f5073" d="M 102.652344 139.886719 C 104.035156 141.390625 105.507812 142.695312 107.574219 143.121094 C 107.675781 143.132812 107.746094 143.183594 107.796875 143.273438 C 107.84375 143.359375 107.84375 143.449219 107.800781 143.539062 C 107.625 143.902344 107.273438 143.894531 106.972656 143.816406 C 104.851562 143.261719 103.371094 142 102.652344 139.886719 Z M 102.652344 139.886719 " fill-opacity="1" fill-rule="nonzero"/><path fill="#915173" d="M 108.632812 137.113281 C 108.546875 138.628906 106.917969 138.371094 106.316406 139.324219 C 106.238281 139.445312 105.925781 139.152344 105.867188 138.933594 C 105.757812 138.507812 105.992188 138.234375 106.359375 138.074219 C 107.101562 137.734375 107.964844 137.707031 108.632812 137.113281 Z M 108.632812 137.113281 " fill-opacity="1" fill-rule="nonzero"/><path fill="#935474" d="M 115.265625 145.292969 C 114.925781 145.257812 114.644531 145.367188 114.414062 145.617188 C 114.195312 145.839844 114.011719 146.09375 113.808594 146.335938 C 113.035156 146.886719 112.457031 147.648438 111.8125 148.351562 C 110.667969 149.601562 109.746094 151.15625 107.925781 151.617188 C 108.121094 152.097656 107.765625 152.511719 107.746094 152.964844 L 108.023438 153.257812 C 108.445312 152.980469 108.167969 152.375 108.652344 152.09375 C 110.925781 150.800781 112.117188 148.46875 113.820312 146.632812 C 114.414062 146.464844 114.664062 145.359375 115.292969 145.75 C 115.785156 146.054688 115.035156 146.675781 114.933594 147.183594 C 114.773438 147.660156 114.613281 148.136719 114.398438 148.761719 C 115.035156 148.390625 115.492188 147.863281 115.765625 147.175781 C 116.492188 145.757812 115.511719 145.378906 115.265625 145.292969 Z M 115.265625 145.292969 " fill-opacity="1" fill-rule="nonzero"/><path fill="#c2e4f7" d="M 121.042969 179.175781 L 123.15625 179.507812 L 123.75 179.757812 C 123.75 184.25 124.367188 188.742188 123.765625 193.230469 L 119.621094 193.550781 C 121.15625 188.863281 121.542969 184.074219 121.042969 179.175781 Z M 121.042969 179.175781 " fill-opacity="1" fill-rule="nonzero"/><path fill="#c2e4f7" d="M 51.992188 200.429688 C 52.742188 205.402344 55.941406 208.671875 59.75 211.511719 C 59.515625 212.480469 58.996094 213.191406 57.984375 213.445312 L 56.910156 213.1875 L 57.890625 213.070312 C 53.164062 210.054688 51.734375 205.632812 51.992188 200.429688 Z M 51.992188 200.429688 " fill-opacity="1" fill-rule="nonzero"/><path fill="#4a5d77" d="M 92.027344 84.453125 C 92.015625 84.597656 91.996094 84.730469 91.984375 84.886719 L 90.664062 84.089844 C 91.335938 83.875 91.671875 84.203125 92.027344 84.453125 Z M 92.027344 84.453125 " fill-opacity="1" fill-rule="nonzero"/><path fill="#c08081" d="M 115.191406 209.59375 C 117.230469 209.871094 119.152344 210.484375 120.6875 211.902344 C 122.695312 213.757812 122.46875 215.875 120.222656 217.429688 C 118.992188 218.28125 117.515625 218.535156 116.214844 219.210938 L 115.230469 219.210938 Z M 115.191406 209.59375 " fill-opacity="1" fill-rule="nonzero"/><path fill="#4e356f" d="M 57.984375 213.453125 L 59.75 211.519531 C 63.304688 213.671875 67.160156 215.164062 71.007812 216.6875 C 67.945312 217.292969 64.871094 217.765625 61.734375 217.605469 C 60.851562 217.570312 60.015625 217.351562 59.226562 216.953125 C 57.832031 216.230469 57.519531 215.320312 57.984375 213.453125 Z M 57.984375 213.453125 " fill-opacity="1" fill-rule="nonzero"/><g fill="#4d1084" fill-opacity="1"><g transform="translate(170.249157, 217.657618)"><g><path d="M 1.9375 0 L 1.9375 -20.015625 L 9.34375 -20.015625 C 10.945312 -20.015625 12.269531 -19.75 13.3125 -19.21875 C 14.363281 -18.6875 15.144531 -17.953125 15.65625 -17.015625 C 16.175781 -16.078125 16.4375 -15.03125 16.4375 -13.875 C 16.4375 -12.757812 16.1875 -11.738281 15.6875 -10.8125 C 15.195312 -9.894531 14.425781 -9.15625 13.375 -8.59375 C 12.332031 -8.03125 10.988281 -7.75 9.34375 -7.75 L 5.609375 -7.75 L 5.609375 0 Z M 5.609375 -10.71875 L 9.125 -10.71875 C 10.394531 -10.71875 11.3125 -11 11.875 -11.5625 C 12.4375 -12.125 12.71875 -12.894531 12.71875 -13.875 C 12.71875 -14.863281 12.4375 -15.640625 11.875 -16.203125 C 11.3125 -16.765625 10.394531 -17.046875 9.125 -17.046875 L 5.609375 -17.046875 Z M 5.609375 -10.71875 "/></g></g></g><g fill="#4d1084" fill-opacity="1"><g transform="translate(187.605574, 217.657618)"><g><path d="M 8.78125 0.34375 C 7.3125 0.34375 6.015625 0.09375 4.890625 -0.40625 C 3.765625 -0.914062 2.878906 -1.640625 2.234375 -2.578125 C 1.585938 -3.523438 1.253906 -4.675781 1.234375 -6.03125 L 5.09375 -6.03125 C 5.125 -5.09375 5.457031 -4.304688 6.09375 -3.671875 C 6.738281 -3.035156 7.625 -2.71875 8.75 -2.71875 C 9.71875 -2.71875 10.488281 -2.953125 11.0625 -3.421875 C 11.632812 -3.890625 11.921875 -4.515625 11.921875 -5.296875 C 11.921875 -6.109375 11.664062 -6.742188 11.15625 -7.203125 C 10.65625 -7.660156 9.984375 -8.03125 9.140625 -8.3125 C 8.304688 -8.601562 7.414062 -8.910156 6.46875 -9.234375 C 4.914062 -9.765625 3.734375 -10.445312 2.921875 -11.28125 C 2.117188 -12.125 1.71875 -13.242188 1.71875 -14.640625 C 1.695312 -15.816406 1.976562 -16.828125 2.5625 -17.671875 C 3.144531 -18.523438 3.941406 -19.1875 4.953125 -19.65625 C 5.960938 -20.125 7.125 -20.359375 8.4375 -20.359375 C 9.769531 -20.359375 10.945312 -20.117188 11.96875 -19.640625 C 12.988281 -19.160156 13.785156 -18.492188 14.359375 -17.640625 C 14.941406 -16.785156 15.253906 -15.765625 15.296875 -14.578125 L 11.375 -14.578125 C 11.363281 -15.285156 11.09375 -15.910156 10.5625 -16.453125 C 10.039062 -16.992188 9.3125 -17.265625 8.375 -17.265625 C 7.570312 -17.285156 6.898438 -17.085938 6.359375 -16.671875 C 5.816406 -16.265625 5.546875 -15.671875 5.546875 -14.890625 C 5.546875 -14.222656 5.753906 -13.691406 6.171875 -13.296875 C 6.597656 -12.910156 7.171875 -12.582031 7.890625 -12.3125 C 8.617188 -12.050781 9.445312 -11.769531 10.375 -11.46875 C 11.363281 -11.125 12.269531 -10.722656 13.09375 -10.265625 C 13.914062 -9.804688 14.570312 -9.195312 15.0625 -8.4375 C 15.5625 -7.6875 15.8125 -6.722656 15.8125 -5.546875 C 15.8125 -4.492188 15.546875 -3.519531 15.015625 -2.625 C 14.484375 -1.726562 13.691406 -1.007812 12.640625 -0.46875 C 11.585938 0.0703125 10.300781 0.34375 8.78125 0.34375 Z M 8.78125 0.34375 "/></g></g></g><g fill="#4d1084" fill-opacity="1"><g transform="translate(204.676062, 217.657618)"><g><path d="M 1.9375 0 L 1.9375 -20.015625 L 5.609375 -20.015625 L 5.609375 0 Z M 1.9375 0 "/></g></g></g><g fill="#4d1084" fill-opacity="1"><g transform="translate(212.224824, 217.657618)"><g><path d="M 11.015625 0.34375 C 8.992188 0.34375 7.253906 -0.0859375 5.796875 -0.953125 C 4.347656 -1.828125 3.234375 -3.039062 2.453125 -4.59375 C 1.671875 -6.144531 1.28125 -7.941406 1.28125 -9.984375 C 1.28125 -12.015625 1.671875 -13.8125 2.453125 -15.375 C 3.234375 -16.945312 4.347656 -18.171875 5.796875 -19.046875 C 7.253906 -19.921875 8.992188 -20.359375 11.015625 -20.359375 C 13.410156 -20.359375 15.375 -19.757812 16.90625 -18.5625 C 18.445312 -17.375 19.40625 -15.703125 19.78125 -13.546875 L 15.75 -13.546875 C 15.507812 -14.640625 14.984375 -15.492188 14.171875 -16.109375 C 13.359375 -16.734375 12.285156 -17.046875 10.953125 -17.046875 C 9.097656 -17.046875 7.644531 -16.414062 6.59375 -15.15625 C 5.550781 -13.894531 5.03125 -12.171875 5.03125 -9.984375 C 5.03125 -7.785156 5.550781 -6.0625 6.59375 -4.8125 C 7.644531 -3.5625 9.097656 -2.9375 10.953125 -2.9375 C 12.285156 -2.9375 13.359375 -3.226562 14.171875 -3.8125 C 14.984375 -4.394531 15.507812 -5.203125 15.75 -6.234375 L 19.78125 -6.234375 C 19.40625 -4.171875 18.445312 -2.554688 16.90625 -1.390625 C 15.375 -0.234375 13.410156 0.34375 11.015625 0.34375 Z M 11.015625 0.34375 "/></g></g></g><g fill="#4d1084" fill-opacity="1"><g transform="translate(233.298443, 217.657618)"><g><path d="M 11.328125 0.34375 C 9.328125 0.34375 7.578125 -0.09375 6.078125 -0.96875 C 4.578125 -1.84375 3.398438 -3.054688 2.546875 -4.609375 C 1.703125 -6.171875 1.28125 -7.972656 1.28125 -10.015625 C 1.28125 -12.046875 1.703125 -13.835938 2.546875 -15.390625 C 3.398438 -16.953125 4.578125 -18.171875 6.078125 -19.046875 C 7.578125 -19.921875 9.328125 -20.359375 11.328125 -20.359375 C 13.304688 -20.359375 15.046875 -19.921875 16.546875 -19.046875 C 18.054688 -18.171875 19.226562 -16.953125 20.0625 -15.390625 C 20.90625 -13.835938 21.328125 -12.046875 21.328125 -10.015625 C 21.328125 -7.972656 20.90625 -6.171875 20.0625 -4.609375 C 19.226562 -3.054688 18.054688 -1.84375 16.546875 -0.96875 C 15.046875 -0.09375 13.304688 0.34375 11.328125 0.34375 Z M 11.328125 -2.9375 C 13.234375 -2.9375 14.75 -3.566406 15.875 -4.828125 C 17.007812 -6.085938 17.578125 -7.816406 17.578125 -10.015625 C 17.578125 -12.203125 17.007812 -13.925781 15.875 -15.1875 C 14.75 -16.445312 13.234375 -17.078125 11.328125 -17.078125 C 9.421875 -17.078125 7.894531 -16.445312 6.75 -15.1875 C 5.601562 -13.925781 5.03125 -12.203125 5.03125 -10.015625 C 5.03125 -7.816406 5.601562 -6.085938 6.75 -4.828125 C 7.894531 -3.566406 9.421875 -2.9375 11.328125 -2.9375 Z M 11.328125 -2.9375 "/></g></g></g><g fill="#4d1084" fill-opacity="1"><g transform="translate(255.916121, 217.657618)"><g><path d="M 1.9375 0 L 1.9375 -20.015625 L 5.609375 -20.015625 L 5.609375 -2.859375 L 14.46875 -2.859375 L 14.46875 0 Z M 1.9375 0 "/></g></g></g><g fill="#4d1084" fill-opacity="1"><g transform="translate(271.671293, 217.657618)"><g><path d="M 11.328125 0.34375 C 9.328125 0.34375 7.578125 -0.09375 6.078125 -0.96875 C 4.578125 -1.84375 3.398438 -3.054688 2.546875 -4.609375 C 1.703125 -6.171875 1.28125 -7.972656 1.28125 -10.015625 C 1.28125 -12.046875 1.703125 -13.835938 2.546875 -15.390625 C 3.398438 -16.953125 4.578125 -18.171875 6.078125 -19.046875 C 7.578125 -19.921875 9.328125 -20.359375 11.328125 -20.359375 C 13.304688 -20.359375 15.046875 -19.921875 16.546875 -19.046875 C 18.054688 -18.171875 19.226562 -16.953125 20.0625 -15.390625 C 20.90625 -13.835938 21.328125 -12.046875 21.328125 -10.015625 C 21.328125 -7.972656 20.90625 -6.171875 20.0625 -4.609375 C 19.226562 -3.054688 18.054688 -1.84375 16.546875 -0.96875 C 15.046875 -0.09375 13.304688 0.34375 11.328125 0.34375 Z M 11.328125 -2.9375 C 13.234375 -2.9375 14.75 -3.566406 15.875 -4.828125 C 17.007812 -6.085938 17.578125 -7.816406 17.578125 -10.015625 C 17.578125 -12.203125 17.007812 -13.925781 15.875 -15.1875 C 14.75 -16.445312 13.234375 -17.078125 11.328125 -17.078125 C 9.421875 -17.078125 7.894531 -16.445312 6.75 -15.1875 C 5.601562 -13.925781 5.03125 -12.203125 5.03125 -10.015625 C 5.03125 -7.816406 5.601562 -6.085938 6.75 -4.828125 C 7.894531 -3.566406 9.421875 -2.9375 11.328125 -2.9375 Z M 11.328125 -2.9375 "/></g></g></g><g fill="#4d1084" fill-opacity="1"><g transform="translate(294.288971, 217.657618)"><g><path d="M 10.6875 0.34375 C 8.800781 0.34375 7.148438 -0.0820312 5.734375 -0.9375 C 4.328125 -1.800781 3.234375 -3 2.453125 -4.53125 C 1.671875 -6.0625 1.28125 -7.847656 1.28125 -9.890625 C 1.28125 -11.953125 1.6875 -13.769531 2.5 -15.34375 C 3.3125 -16.914062 4.460938 -18.144531 5.953125 -19.03125 C 7.453125 -19.914062 9.234375 -20.359375 11.296875 -20.359375 C 13.640625 -20.359375 15.582031 -19.796875 17.125 -18.671875 C 18.664062 -17.546875 19.664062 -15.992188 20.125 -14.015625 L 16.046875 -14.015625 C 15.734375 -14.941406 15.175781 -15.664062 14.375 -16.1875 C 13.582031 -16.71875 12.554688 -16.984375 11.296875 -16.984375 C 9.296875 -16.984375 7.75 -16.347656 6.65625 -15.078125 C 5.570312 -13.816406 5.03125 -12.078125 5.03125 -9.859375 C 5.03125 -7.648438 5.566406 -5.941406 6.640625 -4.734375 C 7.722656 -3.523438 9.1875 -2.921875 11.03125 -2.921875 C 12.84375 -2.921875 14.210938 -3.410156 15.140625 -4.390625 C 16.066406 -5.367188 16.625 -6.660156 16.8125 -8.265625 L 11.75 -8.265625 L 11.75 -11.015625 L 20.5 -11.015625 L 20.5 0 L 17.125 0 L 16.84375 -2.625 C 16.195312 -1.675781 15.382812 -0.941406 14.40625 -0.421875 C 13.4375 0.0859375 12.195312 0.34375 10.6875 0.34375 Z M 10.6875 0.34375 "/></g></g></g><g fill="#4d1084" fill-opacity="1"><g transform="translate(316.391962, 217.657618)"><g><path d="M 1.9375 0 L 1.9375 -20.015625 L 5.609375 -20.015625 L 5.609375 0 Z M 1.9375 0 "/></g></g></g><g fill="#4d1084" fill-opacity="1"><g transform="translate(323.940725, 217.657618)"><g><path d="M 0.65625 0 L 7.984375 -20.015625 L 12.09375 -20.015625 L 19.421875 0 L 15.53125 0 L 13.921875 -4.625 L 6.125 -4.625 L 4.484375 0 Z M 7.125 -7.484375 L 12.921875 -7.484375 L 10.015625 -15.8125 Z M 7.125 -7.484375 "/></g></g></g><g fill="#4d1084" fill-opacity="1"><g transform="translate(284.831618, 237.684624)"><g><path d="M 1.078125 0 L 1.078125 -9.84375 L 5.296875 -9.84375 C 6.253906 -9.84375 7.023438 -9.582031 7.609375 -9.0625 C 8.203125 -8.539062 8.5 -7.859375 8.5 -7.015625 C 8.5 -6.367188 8.3125 -5.8125 7.9375 -5.34375 C 7.5625 -4.875 7.050781 -4.550781 6.40625 -4.375 L 8.625 0 L 7.421875 0 L 5.3125 -4.234375 L 2.171875 -4.234375 L 2.171875 0 Z M 5.234375 -8.875 L 2.171875 -8.875 L 2.171875 -5.140625 L 5.234375 -5.140625 C 5.890625 -5.140625 6.414062 -5.3125 6.8125 -5.65625 C 7.21875 -6 7.421875 -6.453125 7.421875 -7.015625 C 7.421875 -7.578125 7.21875 -8.023438 6.8125 -8.359375 C 6.414062 -8.703125 5.890625 -8.875 5.234375 -8.875 Z M 5.234375 -8.875 "/></g></g></g><g fill="#4d1084" fill-opacity="1"><g transform="translate(293.899976, 237.684624)"><g><path d="M 6.8125 -0.75 C 6.425781 -0.457031 6.019531 -0.238281 5.59375 -0.09375 C 5.164062 0.0507812 4.695312 0.125 4.1875 0.125 C 3.6875 0.125 3.210938 0.03125 2.765625 -0.15625 C 2.316406 -0.34375 1.929688 -0.597656 1.609375 -0.921875 C 1.285156 -1.253906 1.03125 -1.640625 0.84375 -2.078125 C 0.65625 -2.523438 0.5625 -3.007812 0.5625 -3.53125 C 0.5625 -4.03125 0.648438 -4.5 0.828125 -4.9375 C 1.015625 -5.382812 1.257812 -5.769531 1.5625 -6.09375 C 1.875 -6.425781 2.242188 -6.6875 2.671875 -6.875 C 3.097656 -7.0625 3.550781 -7.15625 4.03125 -7.15625 C 4.5 -7.15625 4.9375 -7.0625 5.34375 -6.875 C 5.757812 -6.6875 6.113281 -6.425781 6.40625 -6.09375 C 6.695312 -5.769531 6.929688 -5.382812 7.109375 -4.9375 C 7.285156 -4.5 7.375 -4.03125 7.375 -3.53125 L 7.375 -3.203125 L 1.59375 -3.203125 C 1.664062 -2.515625 1.945312 -1.9375 2.4375 -1.46875 C 2.9375 -1.007812 3.535156 -0.78125 4.234375 -0.78125 C 4.597656 -0.78125 4.953125 -0.835938 5.296875 -0.953125 C 5.648438 -1.066406 5.941406 -1.226562 6.171875 -1.4375 Z M 4 -6.25 C 3.394531 -6.25 2.867188 -6.039062 2.421875 -5.625 C 1.972656 -5.207031 1.703125 -4.675781 1.609375 -4.03125 L 6.328125 -4.03125 C 6.234375 -4.65625 5.96875 -5.179688 5.53125 -5.609375 C 5.09375 -6.035156 4.582031 -6.25 4 -6.25 Z M 4 -6.25 "/></g></g></g><g fill="#4d1084" fill-opacity="1"><g transform="translate(301.829521, 237.684624)"><g><path d="M 0.890625 0 L 0.890625 -7.046875 L 1.921875 -7.046875 L 1.921875 -6.21875 C 2.191406 -6.53125 2.515625 -6.769531 2.890625 -6.9375 C 3.265625 -7.101562 3.679688 -7.1875 4.140625 -7.1875 C 4.941406 -7.1875 5.59375 -6.929688 6.09375 -6.421875 C 6.601562 -5.921875 6.859375 -5.265625 6.859375 -4.453125 L 6.859375 0 L 5.828125 0 L 5.828125 -4.25 C 5.828125 -4.863281 5.648438 -5.351562 5.296875 -5.71875 C 4.941406 -6.082031 4.460938 -6.265625 3.859375 -6.265625 C 3.441406 -6.265625 3.066406 -6.171875 2.734375 -5.984375 C 2.398438 -5.796875 2.128906 -5.53125 1.921875 -5.1875 L 1.921875 0 Z M 0.890625 0 "/></g></g></g><g fill="#4d1084" fill-opacity="1"><g transform="translate(309.548176, 237.684624)"><g><path d="M 3.109375 0.125 C 2.335938 0.125 1.707031 -0.0664062 1.21875 -0.453125 C 0.738281 -0.847656 0.5 -1.363281 0.5 -2 C 0.5 -2.65625 0.753906 -3.175781 1.265625 -3.5625 C 1.773438 -3.945312 2.457031 -4.140625 3.3125 -4.140625 C 3.6875 -4.140625 4.050781 -4.097656 4.40625 -4.015625 C 4.757812 -3.929688 5.085938 -3.816406 5.390625 -3.671875 L 5.390625 -4.59375 C 5.390625 -5.15625 5.226562 -5.578125 4.90625 -5.859375 C 4.582031 -6.148438 4.117188 -6.296875 3.515625 -6.296875 C 3.171875 -6.296875 2.820312 -6.242188 2.46875 -6.140625 C 2.113281 -6.046875 1.726562 -5.894531 1.3125 -5.6875 L 0.90625 -6.484375 C 1.414062 -6.722656 1.882812 -6.898438 2.3125 -7.015625 C 2.75 -7.128906 3.179688 -7.1875 3.609375 -7.1875 C 4.503906 -7.1875 5.191406 -6.972656 5.671875 -6.546875 C 6.148438 -6.128906 6.390625 -5.523438 6.390625 -4.734375 L 6.390625 0 L 5.390625 0 L 5.390625 -0.6875 C 5.066406 -0.414062 4.710938 -0.210938 4.328125 -0.078125 C 3.953125 0.0546875 3.546875 0.125 3.109375 0.125 Z M 1.5 -2.03125 C 1.5 -1.632812 1.664062 -1.3125 2 -1.0625 C 2.332031 -0.8125 2.765625 -0.6875 3.296875 -0.6875 C 3.710938 -0.6875 4.09375 -0.75 4.4375 -0.875 C 4.789062 -1.007812 5.109375 -1.21875 5.390625 -1.5 L 5.390625 -2.828125 C 5.097656 -3.023438 4.785156 -3.164062 4.453125 -3.25 C 4.117188 -3.34375 3.75 -3.390625 3.34375 -3.390625 C 2.78125 -3.390625 2.332031 -3.265625 2 -3.015625 C 1.664062 -2.765625 1.5 -2.4375 1.5 -2.03125 Z M 1.5 -2.03125 "/></g></g></g><g fill="#4d1084" fill-opacity="1"><g transform="translate(316.802858, 237.684624)"><g><path d="M 0.171875 -0.96875 L 0.796875 -1.640625 C 1.117188 -1.335938 1.476562 -1.101562 1.875 -0.9375 C 2.269531 -0.78125 2.675781 -0.703125 3.09375 -0.703125 C 3.65625 -0.703125 4.113281 -0.816406 4.46875 -1.046875 C 4.820312 -1.285156 5 -1.59375 5 -1.96875 C 5 -2.269531 4.894531 -2.503906 4.6875 -2.671875 C 4.476562 -2.847656 4.148438 -2.96875 3.703125 -3.03125 L 2.46875 -3.203125 C 1.769531 -3.304688 1.25 -3.515625 0.90625 -3.828125 C 0.5625 -4.140625 0.390625 -4.566406 0.390625 -5.109375 C 0.390625 -5.691406 0.640625 -6.175781 1.140625 -6.5625 C 1.640625 -6.957031 2.269531 -7.15625 3.03125 -7.15625 C 3.539062 -7.15625 4.019531 -7.078125 4.46875 -6.921875 C 4.925781 -6.773438 5.375 -6.546875 5.8125 -6.234375 L 5.265625 -5.53125 C 4.867188 -5.789062 4.484375 -5.984375 4.109375 -6.109375 C 3.742188 -6.242188 3.367188 -6.3125 2.984375 -6.3125 C 2.503906 -6.3125 2.109375 -6.203125 1.796875 -5.984375 C 1.492188 -5.773438 1.34375 -5.492188 1.34375 -5.140625 C 1.34375 -4.847656 1.445312 -4.617188 1.65625 -4.453125 C 1.863281 -4.285156 2.195312 -4.171875 2.65625 -4.109375 L 3.875 -3.9375 C 4.582031 -3.84375 5.109375 -3.632812 5.453125 -3.3125 C 5.804688 -2.988281 5.984375 -2.5625 5.984375 -2.03125 C 5.984375 -1.726562 5.910156 -1.441406 5.765625 -1.171875 C 5.617188 -0.898438 5.414062 -0.671875 5.15625 -0.484375 C 4.90625 -0.296875 4.601562 -0.144531 4.25 -0.03125 C 3.90625 0.0703125 3.535156 0.125 3.140625 0.125 C 2.554688 0.125 2.007812 0.03125 1.5 -0.15625 C 0.988281 -0.351562 0.546875 -0.625 0.171875 -0.96875 Z M 0.171875 -0.96875 "/></g></g></g><g fill="#4d1084" fill-opacity="1"><g transform="translate(323.073385, 237.684624)"><g><path d="M 4.171875 -0.8125 C 4.546875 -0.8125 4.90625 -0.882812 5.25 -1.03125 C 5.601562 -1.1875 5.929688 -1.410156 6.234375 -1.703125 L 6.875 -1 C 6.5 -0.644531 6.078125 -0.367188 5.609375 -0.171875 C 5.140625 0.0234375 4.648438 0.125 4.140625 0.125 C 3.648438 0.125 3.179688 0.03125 2.734375 -0.15625 C 2.296875 -0.34375 1.914062 -0.597656 1.59375 -0.921875 C 1.28125 -1.253906 1.03125 -1.644531 0.84375 -2.09375 C 0.65625 -2.539062 0.5625 -3.019531 0.5625 -3.53125 C 0.5625 -4.03125 0.65625 -4.503906 0.84375 -4.953125 C 1.03125 -5.398438 1.28125 -5.785156 1.59375 -6.109375 C 1.914062 -6.441406 2.296875 -6.703125 2.734375 -6.890625 C 3.179688 -7.085938 3.648438 -7.1875 4.140625 -7.1875 C 4.648438 -7.1875 5.144531 -7.085938 5.625 -6.890625 C 6.113281 -6.691406 6.539062 -6.421875 6.90625 -6.078125 L 6.25 -5.3125 C 5.96875 -5.601562 5.640625 -5.828125 5.265625 -5.984375 C 4.898438 -6.148438 4.53125 -6.234375 4.15625 -6.234375 C 3.800781 -6.234375 3.460938 -6.160156 3.140625 -6.015625 C 2.828125 -5.878906 2.554688 -5.6875 2.328125 -5.4375 C 2.097656 -5.195312 1.914062 -4.910156 1.78125 -4.578125 C 1.65625 -4.253906 1.59375 -3.90625 1.59375 -3.53125 C 1.59375 -3.144531 1.660156 -2.785156 1.796875 -2.453125 C 1.929688 -2.117188 2.113281 -1.832031 2.34375 -1.59375 C 2.570312 -1.351562 2.84375 -1.160156 3.15625 -1.015625 C 3.476562 -0.878906 3.816406 -0.8125 4.171875 -0.8125 Z M 4.171875 -0.8125 "/></g></g></g><g fill="#4d1084" fill-opacity="1"><g transform="translate(330.285898, 237.684624)"><g><path d="M 6.8125 -0.75 C 6.425781 -0.457031 6.019531 -0.238281 5.59375 -0.09375 C 5.164062 0.0507812 4.695312 0.125 4.1875 0.125 C 3.6875 0.125 3.210938 0.03125 2.765625 -0.15625 C 2.316406 -0.34375 1.929688 -0.597656 1.609375 -0.921875 C 1.285156 -1.253906 1.03125 -1.640625 0.84375 -2.078125 C 0.65625 -2.523438 0.5625 -3.007812 0.5625 -3.53125 C 0.5625 -4.03125 0.648438 -4.5 0.828125 -4.9375 C 1.015625 -5.382812 1.257812 -5.769531 1.5625 -6.09375 C 1.875 -6.425781 2.242188 -6.6875 2.671875 -6.875 C 3.097656 -7.0625 3.550781 -7.15625 4.03125 -7.15625 C 4.5 -7.15625 4.9375 -7.0625 5.34375 -6.875 C 5.757812 -6.6875 6.113281 -6.425781 6.40625 -6.09375 C 6.695312 -5.769531 6.929688 -5.382812 7.109375 -4.9375 C 7.285156 -4.5 7.375 -4.03125 7.375 -3.53125 L 7.375 -3.203125 L 1.59375 -3.203125 C 1.664062 -2.515625 1.945312 -1.9375 2.4375 -1.46875 C 2.9375 -1.007812 3.535156 -0.78125 4.234375 -0.78125 C 4.597656 -0.78125 4.953125 -0.835938 5.296875 -0.953125 C 5.648438 -1.066406 5.941406 -1.226562 6.171875 -1.4375 Z M 4 -6.25 C 3.394531 -6.25 2.867188 -6.039062 2.421875 -5.625 C 1.972656 -5.207031 1.703125 -4.675781 1.609375 -4.03125 L 6.328125 -4.03125 C 6.234375 -4.65625 5.96875 -5.179688 5.53125 -5.609375 C 5.09375 -6.035156 4.582031 -6.25 4 -6.25 Z M 4 -6.25 "/></g></g></g><g fill="#4d1084" fill-opacity="1"><g transform="translate(338.215444, 237.684624)"><g><path d="M 0.890625 0 L 0.890625 -7.046875 L 1.921875 -7.046875 L 1.921875 -6.046875 C 2.128906 -6.410156 2.398438 -6.691406 2.734375 -6.890625 C 3.078125 -7.097656 3.460938 -7.203125 3.890625 -7.203125 C 4.023438 -7.203125 4.144531 -7.191406 4.25 -7.171875 C 4.351562 -7.160156 4.457031 -7.132812 4.5625 -7.09375 L 4.5625 -6.140625 C 4.4375 -6.179688 4.3125 -6.210938 4.1875 -6.234375 C 4.0625 -6.253906 3.941406 -6.265625 3.828125 -6.265625 C 3.390625 -6.265625 3.003906 -6.140625 2.671875 -5.890625 C 2.347656 -5.648438 2.097656 -5.296875 1.921875 -4.828125 L 1.921875 0 Z M 0.890625 0 "/></g></g></g></svg>