<svg xmlns="http://www.w3.org/2000/svg" xmlns:xlink="http://www.w3.org/1999/xlink" width="500" zoomAndPan="magnify" viewBox="0 0 375 374.999991" height="500" preserveAspectRatio="xMidYMid meet" version="1.0"><defs><clipPath id="ec1b532f71"><path d="M 226 227 L 358 227 L 358 358.648438 L 226 358.648438 Z M 226 227 " clip-rule="nonzero"/></clipPath></defs><path fill="#000000" d="M 159.214844 290.199219 C 156.558594 290.199219 153.910156 290.121094 151.261719 289.957031 C 148.613281 289.796875 145.972656 289.554688 143.339844 289.230469 C 140.707031 288.90625 138.085938 288.503906 135.476562 288.019531 C 132.867188 287.535156 130.277344 286.96875 127.703125 286.328125 C 125.128906 285.683594 122.578125 284.960938 120.050781 284.160156 C 117.519531 283.359375 115.015625 282.484375 112.542969 281.527344 C 110.066406 280.574219 107.621094 279.546875 105.210938 278.441406 C 102.796875 277.339844 100.421875 276.160156 98.082031 274.910156 C 95.742188 273.660156 93.441406 272.339844 91.183594 270.949219 C 88.921875 269.558594 86.707031 268.101562 84.539062 266.574219 C 82.371094 265.046875 80.25 263.453125 78.175781 261.796875 C 76.105469 260.140625 74.085938 258.421875 72.121094 256.640625 C 70.152344 254.859375 68.242188 253.019531 66.390625 251.121094 C 64.539062 249.222656 62.746094 247.269531 61.011719 245.257812 C 59.277344 243.25 57.609375 241.191406 56 239.082031 C 54.394531 236.96875 52.851562 234.8125 51.378906 232.605469 C 49.90625 230.398438 48.5 228.152344 47.164062 225.859375 C 45.828125 223.566406 44.5625 221.234375 43.367188 218.867188 C 42.175781 216.496094 41.054688 214.09375 40.011719 211.65625 C 38.964844 209.214844 37.996094 206.75 37.101562 204.25 C 36.207031 201.753906 35.390625 199.230469 34.652344 196.683594 C 33.914062 194.132812 33.253906 191.566406 32.671875 188.976562 C 32.089844 186.386719 31.589844 183.785156 31.167969 181.164062 C 30.746094 178.546875 30.402344 175.917969 30.144531 173.277344 C 29.882812 170.636719 29.703125 167.988281 29.605469 165.339844 C 29.507812 162.6875 29.492188 160.035156 29.558594 157.382812 C 29.625 154.730469 29.769531 152.082031 29.996094 149.441406 C 30.226562 146.796875 30.535156 144.164062 30.921875 141.539062 C 31.3125 138.914062 31.78125 136.304688 32.332031 133.710938 C 32.882812 131.113281 33.511719 128.539062 34.21875 125.980469 C 34.925781 123.425781 35.710938 120.890625 36.574219 118.382812 C 37.4375 115.875 38.378906 113.394531 39.394531 110.945312 C 40.410156 108.492188 41.5 106.074219 42.664062 103.691406 C 43.828125 101.308594 45.0625 98.960938 46.371094 96.652344 C 47.679688 94.34375 49.054688 92.078125 50.503906 89.855469 C 51.949219 87.632812 53.464844 85.453125 55.046875 83.324219 C 56.625 81.195312 58.269531 79.113281 59.980469 77.082031 C 61.6875 75.054688 63.457031 73.078125 65.285156 71.15625 C 67.117188 69.238281 69.003906 67.375 70.949219 65.570312 C 72.890625 63.761719 74.890625 62.019531 76.941406 60.335938 C 78.992188 58.65625 81.09375 57.035156 83.242188 55.484375 C 85.394531 53.929688 87.589844 52.445312 89.832031 51.023438 C 92.074219 49.605469 94.359375 48.257812 96.683594 46.980469 C 99.007812 45.699219 101.367188 44.496094 103.765625 43.359375 C 106.167969 42.226562 108.597656 41.167969 111.0625 40.183594 C 113.523438 39.199219 116.015625 38.292969 118.535156 37.460938 C 121.054688 36.628906 123.597656 35.878906 126.164062 35.203125 C 128.730469 34.527344 131.3125 33.929688 133.914062 33.414062 C 136.519531 32.898438 139.132812 32.460938 141.761719 32.105469 C 144.390625 31.75 147.027344 31.476562 149.675781 31.28125 C 152.320312 31.085938 154.96875 30.976562 157.621094 30.945312 C 160.277344 30.914062 162.925781 30.960938 165.578125 31.09375 C 168.226562 31.226562 170.871094 31.4375 173.507812 31.730469 C 176.144531 32.027344 178.769531 32.398438 181.382812 32.855469 C 183.996094 33.308594 186.59375 33.84375 189.175781 34.457031 C 191.753906 35.074219 194.316406 35.765625 196.851562 36.539062 C 199.390625 37.308594 201.902344 38.160156 204.390625 39.085938 C 206.875 40.011719 209.332031 41.011719 211.757812 42.085938 C 214.179688 43.164062 216.570312 44.3125 218.925781 45.539062 C 221.277344 46.761719 223.59375 48.054688 225.867188 49.421875 C 228.140625 50.785156 230.375 52.21875 232.558594 53.722656 C 234.746094 55.226562 236.886719 56.792969 238.976562 58.425781 C 241.066406 60.058594 243.105469 61.757812 245.089844 63.515625 C 247.078125 65.273438 249.007812 67.09375 250.882812 68.96875 C 253.132812 71.21875 255.300781 73.546875 257.382812 75.957031 C 259.460938 78.367188 261.449219 80.847656 263.347656 83.40625 C 265.246094 85.960938 267.046875 88.582031 268.75 91.273438 C 270.457031 93.960938 272.058594 96.707031 273.558594 99.515625 C 275.0625 102.320312 276.457031 105.179688 277.75 108.089844 C 279.039062 111 280.222656 113.953125 281.296875 116.949219 C 282.371094 119.945312 283.332031 122.980469 284.179688 126.046875 C 285.03125 129.113281 285.765625 132.210938 286.390625 135.332031 C 287.011719 138.453125 287.515625 141.59375 287.90625 144.753906 C 288.296875 147.914062 288.570312 151.082031 288.726562 154.261719 C 288.882812 157.441406 288.921875 160.621094 288.84375 163.804688 C 288.769531 166.988281 288.574219 170.160156 288.261719 173.328125 C 287.949219 176.496094 287.519531 179.648438 286.976562 182.785156 C 286.433594 185.921875 285.773438 189.035156 285 192.121094 C 284.226562 195.210938 283.339844 198.265625 282.34375 201.289062 C 281.34375 204.3125 280.234375 207.292969 279.015625 210.234375 C 277.796875 213.175781 276.472656 216.066406 275.039062 218.910156 C 273.609375 221.753906 272.074219 224.539062 270.4375 227.269531 C 268.800781 230 267.066406 232.664062 265.230469 235.265625 C 263.398438 237.871094 261.46875 240.402344 259.449219 242.859375 C 257.429688 245.320312 255.320312 247.703125 253.125 250.007812 C 250.929688 252.3125 248.652344 254.535156 246.292969 256.671875 C 243.933594 258.808594 241.5 260.855469 238.988281 262.8125 C 236.476562 264.769531 233.898438 266.632812 231.25 268.398438 C 228.601562 270.164062 225.894531 271.832031 223.125 273.402344 C 220.351562 274.96875 217.527344 276.433594 214.648438 277.792969 C 211.773438 279.152344 208.847656 280.402344 205.875 281.546875 C 202.90625 282.691406 199.898438 283.722656 196.851562 284.644531 C 193.804688 285.566406 190.726562 286.375 187.621094 287.070312 C 184.511719 287.765625 181.386719 288.347656 178.238281 288.8125 C 175.085938 289.277344 171.925781 289.625 168.75 289.855469 C 165.574219 290.085938 162.398438 290.203125 159.214844 290.199219 Z M 159.214844 59.496094 C 157.28125 59.492188 155.351562 59.542969 153.421875 59.648438 C 151.492188 59.753906 149.566406 59.917969 147.644531 60.132812 C 145.726562 60.351562 143.8125 60.621094 141.910156 60.949219 C 140.003906 61.273438 138.109375 61.65625 136.226562 62.089844 C 134.34375 62.523438 132.476562 63.011719 130.621094 63.554688 C 128.765625 64.097656 126.929688 64.691406 125.109375 65.339844 C 123.285156 65.984375 121.484375 66.683594 119.707031 67.433594 C 117.925781 68.1875 116.167969 68.988281 114.433594 69.839844 C 112.699219 70.6875 110.988281 71.589844 109.304688 72.539062 C 107.621094 73.488281 105.96875 74.484375 104.339844 75.527344 C 102.714844 76.574219 101.121094 77.664062 99.558594 78.796875 C 97.992188 79.933594 96.464844 81.113281 94.96875 82.335938 C 93.472656 83.558594 92.011719 84.824219 90.589844 86.128906 C 89.164062 87.4375 87.78125 88.785156 86.433594 90.167969 C 85.085938 91.554688 83.78125 92.980469 82.515625 94.441406 C 81.253906 95.902344 80.03125 97.398438 78.851562 98.929688 C 77.671875 100.460938 76.539062 102.023438 75.449219 103.621094 C 74.359375 105.214844 73.316406 106.839844 72.320312 108.496094 C 71.324219 110.152344 70.375 111.835938 69.476562 113.546875 C 68.578125 115.257812 67.726562 116.992188 66.925781 118.75 C 66.125 120.507812 65.378906 122.289062 64.679688 124.089844 C 63.980469 125.890625 63.335938 127.710938 62.742188 129.550781 C 62.148438 131.390625 61.605469 133.246094 61.117188 135.113281 C 60.628906 136.984375 60.195312 138.867188 59.816406 140.761719 C 59.4375 142.65625 59.113281 144.558594 58.839844 146.472656 C 58.570312 148.386719 58.355469 150.304688 58.195312 152.230469 C 58.035156 154.15625 57.929688 156.085938 57.878906 158.019531 C 57.828125 159.949219 57.832031 161.882812 57.894531 163.8125 C 57.957031 165.742188 58.070312 167.671875 58.242188 169.597656 C 58.414062 171.523438 58.640625 173.441406 58.921875 175.351562 C 59.203125 177.265625 59.539062 179.164062 59.929688 181.058594 C 60.316406 182.949219 60.761719 184.832031 61.261719 186.699219 C 61.757812 188.566406 62.308594 190.417969 62.914062 192.253906 C 63.515625 194.085938 64.171875 195.90625 64.882812 197.703125 C 65.589844 199.5 66.347656 201.277344 67.15625 203.03125 C 67.96875 204.785156 68.828125 206.515625 69.738281 208.21875 C 70.644531 209.925781 71.601562 211.601562 72.609375 213.253906 C 73.613281 214.902344 74.664062 216.523438 75.761719 218.113281 C 76.863281 219.703125 78.003906 221.261719 79.191406 222.785156 C 80.378906 224.308594 81.609375 225.800781 82.882812 227.253906 C 84.15625 228.707031 85.46875 230.125 86.820312 231.503906 C 88.175781 232.882812 89.566406 234.21875 91 235.519531 C 92.429688 236.816406 93.894531 238.074219 95.398438 239.289062 C 96.902344 240.503906 98.4375 241.675781 100.007812 242.800781 C 101.578125 243.929688 103.179688 245.011719 104.808594 246.046875 C 106.441406 247.082031 108.101562 248.066406 109.789062 249.007812 C 111.480469 249.949219 113.191406 250.839844 114.933594 251.679688 C 116.671875 252.523438 118.433594 253.3125 120.21875 254.054688 C 122.003906 254.792969 123.808594 255.484375 125.632812 256.121094 C 127.457031 256.757812 129.296875 257.34375 131.15625 257.875 C 133.011719 258.40625 134.882812 258.882812 136.769531 259.308594 C 138.65625 259.734375 140.550781 260.101562 142.457031 260.417969 C 144.363281 260.734375 146.277344 260.996094 148.199219 261.203125 C 150.121094 261.40625 152.046875 261.558594 153.976562 261.65625 C 155.90625 261.75 157.835938 261.789062 159.769531 261.777344 C 161.703125 261.761719 163.632812 261.691406 165.558594 261.566406 C 167.488281 261.441406 169.410156 261.257812 171.328125 261.023438 C 173.246094 260.789062 175.15625 260.496094 177.058594 260.152344 C 178.960938 259.804688 180.847656 259.40625 182.726562 258.953125 C 184.605469 258.5 186.46875 257.992188 188.320312 257.433594 C 190.167969 256.871094 192 256.257812 193.816406 255.59375 C 195.628906 254.929688 197.421875 254.210938 199.195312 253.441406 C 200.96875 252.675781 202.71875 251.855469 204.445312 250.988281 C 206.171875 250.121094 207.871094 249.203125 209.542969 248.234375 C 211.21875 247.269531 212.863281 246.257812 214.476562 245.195312 C 216.09375 244.136719 217.675781 243.03125 219.230469 241.878906 C 220.78125 240.730469 222.300781 239.535156 223.785156 238.296875 C 225.265625 237.058594 226.714844 235.777344 228.125 234.457031 C 229.535156 233.136719 230.90625 231.777344 232.238281 230.378906 C 233.570312 228.976562 234.863281 227.542969 236.113281 226.066406 C 237.363281 224.59375 238.570312 223.085938 239.734375 221.542969 C 240.898438 220 242.015625 218.425781 243.089844 216.820312 C 244.164062 215.210938 245.1875 213.574219 246.167969 211.910156 C 247.148438 210.246094 248.078125 208.550781 248.960938 206.832031 C 249.84375 205.113281 250.675781 203.371094 251.460938 201.605469 C 252.242188 199.835938 252.972656 198.050781 253.652344 196.242188 C 254.335938 194.433594 254.960938 192.605469 255.539062 190.761719 C 256.113281 188.917969 256.636719 187.058594 257.105469 185.183594 C 257.574219 183.308594 257.988281 181.421875 258.347656 179.523438 C 258.710938 177.625 259.015625 175.71875 259.265625 173.800781 C 259.519531 171.886719 259.714844 169.964844 259.855469 168.035156 C 260 166.109375 260.085938 164.179688 260.113281 162.246094 C 260.144531 160.316406 260.121094 158.382812 260.042969 156.453125 C 259.960938 154.523438 259.824219 152.59375 259.636719 150.671875 C 259.445312 148.75 259.199219 146.832031 258.898438 144.925781 C 258.601562 143.015625 258.246094 141.117188 257.835938 139.230469 C 257.425781 137.339844 256.964844 135.464844 256.449219 133.601562 C 255.929688 131.742188 255.363281 129.894531 254.738281 128.066406 C 254.117188 126.234375 253.441406 124.425781 252.71875 122.636719 C 251.992188 120.84375 251.214844 119.074219 250.386719 117.328125 C 249.558594 115.582031 248.683594 113.863281 247.757812 112.167969 C 246.832031 110.46875 245.855469 108.800781 244.835938 107.160156 C 243.8125 105.523438 242.746094 103.910156 241.632812 102.332031 C 240.515625 100.753906 239.359375 99.207031 238.15625 97.695312 C 236.953125 96.183594 235.710938 94.707031 234.421875 93.265625 C 233.132812 91.824219 231.808594 90.421875 230.441406 89.054688 C 228.105469 86.722656 225.664062 84.507812 223.117188 82.414062 C 220.566406 80.320312 217.917969 78.355469 215.175781 76.519531 C 212.433594 74.683594 209.609375 72.988281 206.699219 71.433594 C 203.789062 69.875 200.8125 68.464844 197.761719 67.199219 C 194.714844 65.933594 191.613281 64.820312 188.457031 63.863281 C 185.300781 62.902344 182.101562 62.097656 178.867188 61.453125 C 175.632812 60.804688 172.371094 60.316406 169.089844 59.992188 C 165.804688 59.664062 162.511719 59.5 159.214844 59.496094 Z M 159.214844 59.496094 " fill-opacity="1" fill-rule="nonzero"/><g clip-path="url(#ec1b532f71)"><path fill="#000000" d="M 342.976562 358.648438 C 341.089844 358.640625 339.277344 358.269531 337.539062 357.542969 C 335.796875 356.816406 334.265625 355.78125 332.933594 354.445312 L 230.722656 252.304688 C 230.0625 251.644531 229.472656 250.925781 228.953125 250.144531 C 228.433594 249.367188 227.992188 248.546875 227.636719 247.683594 C 227.277344 246.816406 227.007812 245.925781 226.824219 245.007812 C 226.640625 244.089844 226.550781 243.164062 226.550781 242.226562 C 226.550781 241.292969 226.640625 240.363281 226.824219 239.445312 C 227.007812 238.527344 227.277344 237.636719 227.636719 236.773438 C 227.992188 235.910156 228.433594 235.085938 228.953125 234.308594 C 229.472656 233.53125 230.0625 232.8125 230.722656 232.148438 C 231.386719 231.488281 232.105469 230.894531 232.882812 230.375 C 233.664062 229.855469 234.484375 229.417969 235.347656 229.058594 C 236.214844 228.699219 237.105469 228.429688 238.023438 228.25 C 238.941406 228.066406 239.867188 227.972656 240.804688 227.972656 C 241.738281 227.972656 242.664062 228.066406 243.582031 228.25 C 244.5 228.429688 245.394531 228.699219 246.257812 229.058594 C 247.121094 229.417969 247.945312 229.855469 248.722656 230.375 C 249.5 230.894531 250.21875 231.488281 250.882812 232.148438 L 353.019531 334.359375 C 353.511719 334.855469 353.964844 335.382812 354.378906 335.945312 C 354.796875 336.507812 355.167969 337.097656 355.496094 337.710938 C 355.824219 338.328125 356.105469 338.964844 356.335938 339.625 C 356.570312 340.28125 356.757812 340.953125 356.890625 341.640625 C 357.027344 342.324219 357.113281 343.015625 357.144531 343.714844 C 357.179688 344.410156 357.164062 345.105469 357.09375 345.800781 C 357.023438 346.496094 356.90625 347.183594 356.738281 347.859375 C 356.566406 348.539062 356.347656 349.199219 356.082031 349.84375 C 355.816406 350.492188 355.503906 351.113281 355.144531 351.710938 C 354.785156 352.3125 354.386719 352.882812 353.941406 353.421875 C 353.5 353.964844 353.019531 354.46875 352.503906 354.9375 C 351.988281 355.410156 351.441406 355.839844 350.859375 356.226562 C 350.28125 356.617188 349.675781 356.960938 349.046875 357.261719 C 348.414062 357.5625 347.765625 357.816406 347.097656 358.019531 C 346.429688 358.226562 345.75 358.378906 345.0625 358.484375 C 344.371094 358.589844 343.675781 358.644531 342.976562 358.648438 Z M 342.976562 358.648438 " fill-opacity="1" fill-rule="nonzero"/></g></svg>